<?xml version="1.0" encoding="UTF-8"?>
<svg width="393px" height="385px" viewBox="0 0 393 385" version="1.1" xmlns="http://www.w3.org/2000/svg" xmlns:xlink="http://www.w3.org/1999/xlink">
    <title>cat</title>
    <g id="Page-1" stroke="none" stroke-width="1" fill="none" fill-rule="evenodd">
        <g id="with-borders-copy" transform="translate(-3039.000000, -843.000000)" fill="#000000" fill-rule="nonzero">
            <g id="Group" transform="translate(3039.566654, 843.370000)">
                <g transform="translate(220.773346, 11.517508)">
                    <path d="M166.49,129.112492 C152.48,82.1224916 116.03,62.0224916 99.97,87.3524916 C118.11,108.702492 106.01,131.572492 63.49,146.502492 C30.03,158.252492 0,176.062492 0,217.652492 C0,251.952492 13.39,267.682492 20.34,267.682492 C31.18,267.682492 31.7,252.622492 72.14,248.402492 C160.44,239.192492 181.97,181.062492 166.49,129.112492 Z M106.58,202.532492 C90.93,218.862492 66.72,225.752492 45.94,222.972492 C36.58,221.722492 30.77,218.112492 34.38,212.832492 C35.33,211.442492 37.04,210.782492 38.7,211.062492 C53.54,213.512492 82.26,204.532492 93.83,187.322492 C103.99,172.192492 119.71,188.832492 106.58,202.532492 Z" id="Shape"></path>
                    <path d="M160.44,226.622492 C152.96,239.202492 133.67,260.862492 93.92,265.182492 C47.81,270.192492 41.6,306.452492 49.53,306.452492 C69.3,288.382492 102.33,308.932492 139.46,285.122492 C176.13,261.602492 175.96,223.172492 160.44,226.622492 Z" id="Path"></path>
                    <path d="M24.66,136.592492 C13.86,136.022492 27.85,126.922492 34.96,68.2624916 C41.07,17.8224916 25.07,-6.8575084 47.58,1.6524916 C57.25,5.3124916 66.57,9.6824916 75.47,14.6924916 C108.44,33.2624916 61.6,138.562492 24.66,136.592492 Z" id="Path"></path>
                    <path d="M138.5,306.052492 C141.5,304.282492 144.82,307.892492 142.82,310.742492 C138.89,316.342492 134.68,321.742492 130.22,326.912492 C114.23,345.432492 88.44,345.682492 71.43,340.172492 C58.95,336.132492 50.74,333.092492 50.74,329.542492 C50.74,323.952492 71.9,314.502492 98.18,315.862492 C113.98,316.682492 127.88,312.332492 138.5,306.052492 Z" id="Path"></path>
                </g>
                <g transform="translate(-0.000000, 0.000000)">
                    <path d="M261.733346,353.22 C258.233346,347.27 250.573346,345.29 244.623346,348.79 C244.483346,348.87 231.653346,356.05 208.933346,358.21 L208.933346,339.43 L239.413346,317.61 C245.093346,313.5 247.053346,305.8 243.143346,299.42 C239.223346,293.04 231.573346,291.51 225.233346,294.5 L195.933346,308.61 L166.633346,294.5 C160.293346,291.51 152.643346,293.04 148.723346,299.42 C144.813346,305.8 146.773346,313.5 152.453346,317.61 L182.933346,339.43 L182.933346,358.21 C160.213346,356.05 147.383346,348.87 147.243346,348.79 C141.293346,345.29 133.633346,347.27 130.133346,353.22 C126.633346,359.17 128.613346,366.83 134.563346,370.33 C135.503346,370.88 157.923346,383.82 195.933346,383.82 C233.943346,383.82 256.363346,370.88 257.303346,370.33 C263.253346,366.83 265.233346,359.17 261.733346,353.22 Z" id="Path"></path>
                    <path d="M107.603346,158.02 C65.0833457,143.09 52.9933457,120.22 71.1333457,98.87 C55.0733457,73.54 18.6233457,93.64 4.61334573,140.63 C-10.8666543,192.58 10.6633457,250.71 98.9633457,259.92 C139.393346,264.14 139.923346,279.2 150.763346,279.2 C157.703346,279.2 171.103346,263.47 171.103346,229.17 C171.103346,187.58 141.073346,169.77 107.603346,158.02 Z M125.163346,234.49 C104.383346,237.27 80.1733457,230.38 64.5233457,214.05 C51.3833457,200.35 67.1133457,183.71 77.2733457,198.84 C88.8433457,216.05 117.563346,225.03 132.403346,222.58 C134.063346,222.3 135.763346,222.96 136.713346,224.35 C140.323346,229.63 134.523346,233.24 125.163346,234.49 Z" id="Shape"></path>
                    <path d="M10.6533457,238.14 C18.1333457,250.72 37.4233457,272.38 77.1733457,276.7 C123.283346,281.71 129.493346,317.97 121.563346,317.97 C101.793346,299.9 68.7633457,320.45 31.6333457,296.64 C-5.03665427,273.12 -4.86665427,234.69 10.6533457,238.14 Z" id="Path"></path>
                    <path d="M231.983346,12.79 C229.813346,1.07 210.463346,-7.10542736e-15 195.933346,-7.10542736e-15 C181.393346,-7.10542736e-15 162.053346,1.08 159.883346,12.79 C150.743346,62.07 168.643346,181.69 195.933346,181.69 C223.223346,181.69 241.123346,62.06 231.983346,12.79 Z" id="Path"></path>
                    <path d="M146.433346,148.11 C157.233346,147.54 143.243346,138.44 136.133346,79.78 C130.023346,29.34 146.023346,4.66 123.513346,13.17 C113.843346,16.83 104.523346,21.2 95.6233457,26.21 C62.6533457,44.78 109.493346,150.08 146.433346,148.11 Z" id="Path"></path>
                    <path d="M120.363346,341.06 C120.363346,344.61 112.153346,347.65 99.6633457,351.69 C82.6633457,357.2 56.8733457,356.95 40.8833457,338.43 C36.4333457,333.28 32.2433457,327.9 28.3233457,322.31 C26.3033457,319.44 29.5933457,315.78 32.6133457,317.57 C43.2333457,323.85 57.1333457,328.19 72.9333457,327.38 C99.1933457,326.02 120.363346,335.47 120.363346,341.06 Z" id="Path"></path>
                </g>
            </g>
        </g>
    </g>
</svg>