<?xml version="1.0" encoding="UTF-8"?>
<svg width="404px" height="404px" viewBox="0 0 404 404" version="1.1" xmlns="http://www.w3.org/2000/svg" xmlns:xlink="http://www.w3.org/1999/xlink">
    <title>dragon</title>
    <g id="Page-1" stroke="none" stroke-width="1" fill="none" fill-rule="evenodd">
        <g id="with-borders-copy" transform="translate(-166.000000, -194.000000)" fill="#000000" fill-rule="nonzero">
            <g id="dragon" transform="translate(166.436998, 194.440000)">
                <path d="M402.683002,219.82 C393.863002,304.93 332.903002,374.56 252.293002,396.2 C262.823002,339.93 312.143002,334.55 351.823002,297.41 C396.753002,255.38 394.823002,221.67 402.683002,219.82 Z" id="Path"></path>
                <path d="M343.323002,278.99 C297.643002,321.23 233.913002,336.82 226.993002,401.29 C217.863002,402.55 208.543002,403.19 199.063002,403.19 C184.733002,403.19 170.753002,401.72 157.263002,398.92 C178.343002,292.31 231.943002,292.02 288.333002,241.01 C375.633002,162.01 327.493002,129.6 341.903002,83.68 C299.383002,84.25 287.483002,114.86 285.783002,131.87 C263.953002,118.55 278.013002,51.37 329.263002,40.46 L329.273002,40.46 C362.233002,67.66 386.543002,104.97 397.443002,147.65 C397.453002,147.7 397.453002,147.72 397.453002,147.72 C403.793002,180.91 387.263002,238.36 343.323002,278.99 Z" id="Path"></path>
                <path d="M2.05300222,254.33 C2.17300222,254.8 2.30300222,255.27 2.44300222,255.72 C2.46300222,255.78 2.48300222,255.84 2.50300222,255.9" id="Path"></path>
                <path d="M324.043002,99.46 C304.773002,114.01 293.433002,128.19 297.963002,146.14 C272.263002,154.64 259.903002,131.58 260.743002,108.91 C262.113002,71.78 301.083002,46.12 283.753002,12.02 L283.743002,12.01 C279.813002,10.22 275.823002,8.56 271.773002,7.02 C281.523002,46.17 211.793002,27.27 210.753002,85.57 C190.253002,82.64 199.323002,49.28 216.143002,40.46 C235.603002,30.25 256.953002,14.05 249.513002,2.27373675e-13 C249.513002,2.27373675e-13 249.513002,2.27373675e-13 249.503002,2.27373675e-13 C232.573002,12.62 218.153002,-0.42 199.573002,3.19 C173.303002,8.3 162.283002,24.06 155.673002,47.49 C155.383002,28.88 154.063002,4.48 129.733002,5.77 C119.523002,9.44 109.683002,13.91 100.293002,19.09 C121.643002,63.85 86.5030022,121.1 60.9930022,130.17 C48.3330022,134.67 47.3830022,157.38 66.0930022,165.32 C70.9130022,201.89 43.2730022,215.64 37.3230022,217.76 C31.3730022,219.89 28.1130022,212.8 23.5730022,212.94 C-9.02699778,112.31 109.743002,125.07 84.0230022,29.08 C78.6230022,32.76 73.4130022,36.68 68.4030022,40.84 C76.1930022,76.44 52.5130022,89.45 30.5630022,112.97 C8.82300222,136.28 -11.2469978,170.02 7.32300222,221.54 C1.11300222,234.85 -0.0469977767,246.13 2.05300222,254.33 C2.19300222,254.85 2.34300222,255.38 2.50300222,255.9 C5.20300222,264.16 15.3130022,272.95 21.5930022,275.02 C25.5630022,287.78 44.6230022,305.85 51.0030022,295.36 C46.6030022,291.75 42.7830022,285.58 44.1930022,275.23 C54.3330022,288.13 67.5130022,291.75 76.8630022,277.43 C86.2230022,263.12 79.3330022,242.09 97.3330022,229.34 C115.333002,216.58 134.053002,231.08 146.103002,218.68 C151.063002,213.58 145.743002,204.37 152.833002,200.9 C162.853002,195.99 172.963002,224.47 154.823002,234.15 C136.673002,243.84 113.663002,235.29 105.683002,240.82 C83.6830022,256.05 99.5430022,311.68 57.2130022,295.62 C54.5630022,321.32 67.0430022,326.04 75.7330022,329.64 C81.6830022,376.31 112.483002,351.46 106.873002,381.31 C110.903002,383.35 115.013002,385.25 119.203002,387.03 C119.203002,387.03 138.733002,364.1 106.633002,339.3 C106.633002,339.3 110.103002,336.96 113.153002,338.45 C116.193002,339.93 137.163002,350.28 133.273002,370.83 C140.073002,380.68 152.453002,366.11 155.483002,352.31 C158.503002,338.52 155.673002,323.78 136.963002,311.87 C140.363002,297.32 146.783002,279.84 160.013002,280.41 C173.243002,280.97 168.143002,284.75 184.113002,284.47 C200.073002,284.19 218.783002,275.97 227.853002,267.27 C242.033002,262.93 250.913002,258.77 256.013002,244.41 C232.583002,251.21 215.603002,243.18 215.193002,234.15 C214.823002,225.7 226.723002,217.76 226.723002,195.84 C226.723002,167.97 206.503002,164.19 196.963002,174.01 C189.823002,168.3 199.063002,156.39 210.753002,155.4 C223.643002,154.31 242.783002,163.66 244.673002,186.2 C246.623002,209.46 235.223002,227.4 235.223002,227.4 C248.933002,236.85 268.773002,234.95 301.933002,205.48 C346.153002,166.17 320.013002,113.85 324.043002,99.46 Z M96.8930022,162.71 C92.8730022,159.65 94.6730022,151.1 100.293002,145.99 C111.313002,135.97 134.383002,131.12 132.043002,118.21 C135.913002,118.78 137.353002,123.21 135.913002,129.17 C132.773002,142.21 116.823002,143.44 110.873002,158.27 C107.533002,166.62 100.673002,165.59 96.8930022,162.71 Z" id="Shape"></path>
            </g>
        </g>
    </g>
</svg>