<?xml version="1.0" encoding="UTF-8"?>
<svg width="357px" height="410px" viewBox="0 0 357 410" version="1.1" xmlns="http://www.w3.org/2000/svg" xmlns:xlink="http://www.w3.org/1999/xlink">
    <title>earth</title>
    <g id="Page-1" stroke="none" stroke-width="1" fill="none" fill-rule="evenodd">
        <g id="with-borders-copy" transform="translate(-1335.000000, -188.000000)" fill="#000000" fill-rule="nonzero">
            <g id="earth" transform="translate(1335.394800, 188.170000)">
                <g id="Group" transform="translate(0.000000, 0.000000)">
                    <path d="M274.9552,372.8 L81.2552001,372.8 C75.3052001,372.8 73.2552001,380.71 78.4552001,383.61 C107.9452,400.08 141.9252,409.46 178.1052,409.46 C214.2852,409.46 248.2652,400.08 277.7552,383.61 C282.9552,380.71 280.9052,372.8 274.9552,372.8 Z" id="Path"></path>
                    <path d="M348.7552,296.34 L283.4752,296.34 L327.4652,230.22 C329.9452,226.49 330.1852,221.72 328.0752,217.77 C313.4052,190.29 255.5952,81.97 234.7052,42.83 C220.5552,16.32 214.4752,-2.84217094e-14 178.1052,-2.84217094e-14 C141.7352,-2.84217094e-14 135.6552,16.32 121.5052,42.83 C100.6152,81.98 42.7952001,190.29 28.1352001,217.77 C26.0252001,221.72 26.2652001,226.5 28.7452001,230.22 L72.7352001,296.34 L7.45520013,296.34 C1.69520013,296.34 -1.86479987,302.59 1.02520013,307.56 C10.5452001,323.92 22.2752001,338.85 35.8052001,351.92 C39.4652001,355.46 44.3352001,357.48 49.4352001,357.48 L306.7752,357.48 C311.8752,357.48 316.7452,355.46 320.4052,351.92 C333.9352,338.84 345.6552,323.92 355.1852,307.56 C358.0752,302.58 354.5152,296.34 348.7552,296.34 Z M210.0152,296.34 L146.1952,296.34 L99.3752001,225.98 C122.8252,179.87 154.4752,117.63 169.2252,88.62 C171.0752,84.99 175.0952,76.2 178.1052,76.2 C181.1152,76.2 185.1352,84.99 186.9852,88.62 C201.7352,117.63 233.3852,179.87 256.8352,225.98 L210.0152,296.34 Z" id="Shape"></path>
                </g>
            </g>
        </g>
    </g>
</svg>