<?xml version="1.0" encoding="UTF-8"?>
<svg width="399px" height="409px" viewBox="0 0 399 409" version="1.1" xmlns="http://www.w3.org/2000/svg" xmlns:xlink="http://www.w3.org/1999/xlink">
    <title>fire</title>
    <g id="Page-1" stroke="none" stroke-width="1" fill="none" fill-rule="evenodd">
        <g id="with-borders-copy" transform="translate(-1888.000000, -188.000000)" fill="#000000" fill-rule="nonzero">
            <g id="Group" transform="translate(1888.000000, 188.170000)">
                <path d="M309.09,49.65 C309.09,49.65 294.35,49.46 294.35,66.19 C294.35,100.77 399,78.28 399,226.63 C316.65,226.63 245.22,159.64 245.22,68.83 C245.22,47.81 261.24,34.91 277.39,34.91 C305.17,34.91 309.09,49.65 309.09,49.65 Z" id="Path"></path>
                <g id="Path">
                    <path d="M240.79,150.19 C219.42,82.82 210.26,0 199.5,0 C188.74,0 179.58,82.82 158.21,150.19 C125.52,253.23 19.52,243.82 19.52,292.01 C19.52,298.04 22.89,308.43 25.27,312.29 C58.33,365.86 116.37,403.53 183.11,408.81 C181.86,408.15 129.84,380.44 129.84,332.46 C129.84,259.51 178.92,266.88 199.5,219.64 C220.08,266.88 269.16,259.51 269.16,332.46 C269.16,380.44 217.14,408.15 215.89,408.81 C282.63,403.53 340.67,365.86 373.73,312.29 C376.11,308.43 379.48,298.04 379.48,292.01 C379.48,243.82 273.48,253.23 240.79,150.19 Z"></path>
                    <path d="M89.91,49.65 C89.91,49.65 104.65,49.46 104.65,66.19 C104.65,100.77 0,78.28 0,226.63 C82.35,226.63 153.78,159.64 153.78,68.83 C153.78,47.81 137.76,34.91 121.61,34.91 C93.83,34.91 89.91,49.65 89.91,49.65 Z"></path>
                </g>
            </g>
        </g>
    </g>
</svg>