<?xml version="1.0" encoding="UTF-8"?>
<svg width="401px" height="399px" viewBox="0 0 401 399" version="1.1" xmlns="http://www.w3.org/2000/svg" xmlns:xlink="http://www.w3.org/1999/xlink">
    <title>frog</title>
    <g id="Page-1" stroke="none" stroke-width="1" fill="none" fill-rule="evenodd">
        <g id="with-borders-copy" transform="translate(-1887.000000, -854.000000)" fill="#000000" fill-rule="nonzero">
            <g id="frog" transform="translate(1887.570000, 854.332468)">
                <g id="Group" transform="translate(-0.000000, 0.000000)">
                    <g transform="translate(234.030000, 70.517532)">
                        <path d="M87.59,0 C48.61,0 0,27.78 0,68.88 C0,111.69 30.9,131.25 59.24,131.25 C100.77,131.25 148.25,110.55 148.25,56.41 C148.25,26.57 126.57,0 87.59,0 Z M111.5,66.71 C92.93,66.71 63.7,74.07 39.69,88.63 C21.45,99.69 22.55,80.78 32.6,73.04 C52.73,57.54 76.47,45.52 111.13,45.52 C126.78,45.52 127.13,66.71 111.5,66.71 Z" id="Shape"></path>
                        <path d="M109.87,268.8 C94.4,284.11 76.51,296.96 56.81,306.73 C48.65,310.78 38.72,308.07 33.73,300.44 C12.64,268.17 6.67,241.31 22.57,241.31 C54.89,241.31 63.68,275.99 106.24,262.48 C111.37,260.86 113.01,265.7 109.87,268.8 Z" id="Path"></path>
                    </g>
                    <g>
                        <path d="M369.91,199.497532 C330.04,199.497532 349.5,248.257532 320.35,248.257532 C284.49,248.257532 267.02,214.727532 199.93,214.727532 C132.84,214.727532 115.37,248.257532 79.51,248.257532 C50.36,248.257532 69.83,199.497532 29.95,199.497532 C6.56,199.497532 -1.42108547e-14,218.957532 -1.42108547e-14,232.097532 C-1.42108547e-14,251.747532 16.58,292.987532 62.74,292.987532 C115.94,292.987532 131.81,247.837532 199.93,247.837532 C268.05,247.837532 283.92,292.987532 337.12,292.987532 C383.28,292.987532 399.86,251.757532 399.86,232.097532 C399.86,218.957532 393.29,199.497532 369.91,199.497532 Z" id="Path"></path>
                        <path d="M199.93,309.977532 C160.87,309.977532 177.73,337.827532 138.72,389.187532 C158.05,395.237532 178.61,398.497532 199.93,398.497532 C221.25,398.497532 241.81,395.237532 261.14,389.187532 C222.13,337.827532 238.99,309.977532 199.93,309.977532 Z" id="Path"></path>
                        <path d="M334.96,39.8675319 C317.34,24.3975319 297.05,11.9075319 274.86,3.17753188 C265.5,-0.502468119 250.11,-2.14246812 238.76,4.75753188 C221.95,14.9675319 209.8,36.3675319 199.93,36.3675319 C190.06,36.3675319 177.91,14.9775319 161.1,4.75753188 C149.75,-2.14246812 134.36,-0.502468119 125,3.17753188 C102.81,11.9075319 82.52,24.3975319 64.9,39.8675319 C61.53,42.8275319 64.47,48.1875319 69.31,46.4875319 C135.22,23.3175319 143.43,97.8175319 199.93,97.8175319 C256.43,97.8175319 264.64,23.3175319 330.55,46.4875319 C335.39,48.1975319 338.33,42.8275319 334.96,39.8675319 Z" id="Path"></path>
                        <path d="M78.24,70.5175319 C39.26,70.5175319 17.58,97.0875319 17.58,126.927532 C17.58,181.067532 65.06,201.767532 106.59,201.767532 C134.93,201.767532 165.83,182.207532 165.83,139.397532 C165.83,98.2975319 117.22,70.5175319 78.24,70.5175319 Z M126.14,159.147532 C102.13,144.587532 72.9,137.227532 54.33,137.227532 C38.7,137.227532 39.05,116.037532 54.7,116.037532 C89.36,116.037532 113.1,128.057532 133.23,143.557532 C143.28,151.297532 144.38,170.207532 126.14,159.147532 Z" id="Shape"></path>
                        <path d="M132.1,370.957532 C127.11,378.587532 117.19,381.297532 109.02,377.247532 C89.33,367.477532 71.43,354.617532 55.96,339.317532 C52.82,336.217532 54.46,331.377532 59.58,333.007532 C102.14,346.517532 110.93,311.837532 143.25,311.837532 C159.16,311.837532 153.18,338.697532 132.1,370.957532 Z" id="Path"></path>
                    </g>
                </g>
            </g>
        </g>
    </g>
</svg>