<?xml version="1.0" encoding="UTF-8"?>
<svg width="408px" height="410px" viewBox="0 0 408 410" version="1.1" xmlns="http://www.w3.org/2000/svg" xmlns:xlink="http://www.w3.org/1999/xlink">
    <title>lightning</title>
    <g id="Page-1" stroke="none" stroke-width="1" fill="none" fill-rule="evenodd">
        <g id="with-borders-copy" transform="translate(-734.000000, -188.000000)" fill="#000000" fill-rule="nonzero">
            <g id="lightning" transform="translate(734.770000, 188.170000)">
                <path d="M356.92,279.06 L213.76,403.21 C205.17,410.65 182.86,412.2 187.99,402.06 L229.66,319.65 L139.05,319.65 C128.97,319.65 122.44,309.02 126.98,300.02 L197.36,160.83 C199.15,157.3 196.58,153.12 192.62,153.12 L170.99,153.12 C158.65,153.12 154.11,167.57 154.11,167.57 L171.31,167.57 C174.26,167.57 176.17,170.68 174.84,173.31 L151.59,219.28 C149.65,223.12 145.71,225.54 141.41,225.54 L95.16,225.54 C90.23,225.54 86.04,221.85 85.54,216.95 C85.13,212.93 84.92,208.86 84.92,204.73 C84.92,166.63 102.71,132.67 130.44,110.73 C138.5,104.35 148.52,100.96 158.8,100.96 L248.05,100.96 C272.49,100.96 288.35,126.74 277.32,148.55 L221.82,258.28 L349.16,258.28 C360.13,258.28 365.2,271.88 356.92,279.06 Z" id="Path"></path>
                <path d="M359.05,225.54 L261.03,225.54 C258.08,225.54 256.17,222.43 257.5,219.8 L280.75,173.83 C282.69,169.99 286.63,167.57 290.93,167.57 L331.93,167.57 C345.82,167.57 341.07,152.99 334.92,140.54 C311.23,92.59 261.83,59.61 204.73,59.61 C124.58,59.61 59.61,124.58 59.61,204.73 C59.61,208.02 59.72,211.28 59.94,214.51 C60.33,220.47 55.65,225.54 49.67,225.54 L11.56,225.54 C5.49,225.54 0.53,220.75 0.24,214.68 C0.08,211.39 1.13686838e-13,208.07 1.13686838e-13,204.73 C1.13686838e-13,91.66 91.66,0 204.73,0 C305.12,0 388.63,72.24 406.11,167.57 C406.38,169.08 406.63,171.11 406.84,173.52 C409.33,201.5 387.14,225.54 359.05,225.54 Z" id="Path"></path>
            </g>
        </g>
    </g>
</svg>