<?xml version="1.0" encoding="UTF-8"?>
<svg width="403px" height="384px" viewBox="0 0 403 384" version="1.1" xmlns="http://www.w3.org/2000/svg" xmlns:xlink="http://www.w3.org/1999/xlink">
    <title>red_panda</title>
    <g id="Page-1" stroke="none" stroke-width="1" fill="none" fill-rule="evenodd">
        <g id="with-borders-copy" transform="translate(-1312.000000, -869.000000)" fill="#000000" fill-rule="nonzero">
            <g id="red_panda" transform="translate(1312.515948, 869.855852)">
                <g id="Group" transform="translate(-0.000000, 0.000000)">
                    <path d="M239.594052,130.814148 C235.024052,130.814148 225.284052,119.584148 225.284052,97.8941478 C225.284052,54.3841478 269.084052,49.9841478 269.084052,24.7641478 C269.084052,11.8641478 263.844052,8.74414782 263.844052,8.74414782 C275.754052,-10.9558522 320.824052,2.50414782 320.824052,50.4141478 C320.804052,110.084148 246.674052,99.5941478 239.594052,130.814148 Z" id="Path"></path>
                    <g>
                        <path d="M201.204052,225.174148 C167.784052,225.174148 156.864052,234.384148 156.864052,242.744148 C156.864052,260.464148 192.154052,276.194148 201.204052,276.194148 C210.254052,276.194148 245.544052,260.464148 245.544052,242.744148 C245.544052,234.384148 234.624052,225.174148 201.204052,225.174148 Z" id="Path"></path>
                        <path d="M383.784052,149.744148 C384.484052,190.594148 350.474052,204.384148 346.784052,198.154148 C344.334052,194.004148 373.104052,185.304148 373.104052,139.714148 C373.104052,112.494148 355.474052,67.0041478 341.024052,78.7141478 C353.544052,137.584148 229.624052,101.724148 229.624052,189.274148 C229.624052,233.114148 307.154052,204.904148 307.154052,278.184148 C307.154052,319.994148 262.124052,358.614148 201.204052,358.614148 C140.284052,358.614148 95.2540518,319.994148 95.2540518,278.184148 C95.2540518,204.904148 172.784052,233.114148 172.784052,189.274148 C172.784052,101.724148 48.8640518,137.584148 61.3840518,78.7141478 C46.9340518,67.0041478 29.3040518,112.494148 29.3040518,139.714148 C29.3040518,185.304148 58.0740518,194.004148 55.6240518,198.154148 C51.9340518,204.384148 17.9240518,190.594148 18.6240518,149.744148 C-2.20594825,144.674148 -2.16594825,208.454148 2.58405175,227.214148 C25.1940518,316.454148 105.014052,382.974148 201.204052,382.974148 C297.394052,382.974148 377.214052,316.454148 399.824052,227.214148 C404.574052,208.454148 404.614052,144.674148 383.784052,149.744148 Z M78.1540518,168.004148 C65.7340518,168.074148 67.9540518,152.234148 78.0640518,152.234148 C107.454052,152.234148 134.544052,162.174148 145.154052,173.154148 C148.884052,177.024148 146.724052,181.094148 143.924052,179.824148 C122.244052,169.944148 95.3540518,167.914148 78.1540518,168.004148 Z M324.254052,168.004148 C307.054052,167.914148 280.164052,169.944148 258.484052,179.824148 C255.684052,181.094148 253.524052,177.024148 257.254052,173.154148 C267.864052,162.174148 294.964052,152.234148 324.344052,152.234148 C334.454052,152.234148 336.674052,168.074148 324.254052,168.004148 Z" id="Shape"></path>
                        <path d="M162.824052,130.814148 C167.394052,130.814148 177.134052,119.584148 177.134052,97.8941478 C177.134052,54.3841478 133.334052,49.9841478 133.334052,24.7641478 C133.334052,11.8641478 138.574052,8.74414782 138.574052,8.74414782 C126.664052,-10.9558522 81.5940518,2.50414782 81.5940518,50.4141478 C81.6040518,110.084148 155.734052,99.5941478 162.824052,130.814148 Z" id="Path"></path>
                    </g>
                </g>
            </g>
        </g>
    </g>
</svg>