<?xml version="1.0" encoding="UTF-8"?>
<svg width="411px" height="400px" viewBox="0 0 411 400" version="1.1" xmlns="http://www.w3.org/2000/svg" xmlns:xlink="http://www.w3.org/1999/xlink">
    <title>sloth</title>
    <g id="Page-1" stroke="none" stroke-width="1" fill="none" fill-rule="evenodd">
        <g id="with-borders-copy" transform="translate(-2456.000000, -853.000000)" fill="#000000" fill-rule="nonzero">
            <g id="sloth" transform="translate(2456.745866, 853.130000)">
                <g id="Group" transform="translate(-0.000000, 0.000000)">
                    <g transform="translate(221.632227, 0.000000)">
                        <path d="M186.721906,173.42 C179.141906,101.82 8.67190636,55.29 8.67190636,144.57 C8.67190636,218.84 124.561906,204.38 138.511906,269.07 C144.881906,298.63 132.841906,318.08 138.171906,322.45 C139.731906,323.72 142.291906,323.85 145.601906,319.53 C176.411906,279.36 192.471906,227.75 186.721906,173.42 Z M111.381906,180.57 C82.8919064,178.52 61.9419064,169.55 43.9219064,157.75 C30.0219064,148.65 41.2319064,129.14 57.2419064,140.82 C73.9619064,153 98.2719064,162.29 121.941906,164.08 C137.441906,165.25 136.831906,182.41 111.381906,180.57 Z" id="Shape"></path>
                        <path d="M106.141906,39.54 C104.291906,38.69 102.161906,38.65 100.211906,39.23 C61.6819064,50.81 65.4519064,0 25.6319064,0 C-16.8780936,0 -7.81809364,75.97 62.6219064,75.97 C109.181906,75.97 119.481906,45.62 106.141906,39.54 Z" id="Path"></path>
                    </g>
                    <g transform="translate(0.000000, 0.000000)">
                        <path d="M282.064134,274.35 C279.884134,265.5 270.984134,260.09 262.134134,262.26 C261.944134,262.3 243.074134,266.68 204.754134,266.68 C166.434134,266.68 147.554134,262.3 147.374134,262.26 C138.524134,260.08 129.614134,265.5 127.444134,274.35 C125.274134,283.2 130.704134,292.14 139.554134,294.32 C140.444134,294.54 161.854134,299.69 204.754134,299.69 C247.654134,299.69 269.064134,294.54 269.954134,294.32 C278.804134,292.14 284.244134,283.2 282.064134,274.35 Z" id="Path"></path>
                        <path d="M334.384134,331.28 C323.874134,324.64 304.824134,322.57 295.644134,330.15 C260.874134,358.87 228.014134,361.28 204.754134,361.28 C181.494134,361.28 148.634134,358.87 113.864134,330.15 C104.684134,322.57 85.6341337,324.65 75.1241337,331.28 C66.4841337,336.74 63.7541337,344.16 75.3041337,353.59 C110.574134,382.41 155.644134,399.7 204.754134,399.7 C253.864134,399.7 298.924134,382.41 334.204134,353.59 C345.744134,344.16 343.014134,336.74 334.384134,331.28 Z" id="Path"></path>
                        <path d="M1.15413367,173.42 C-4.59586633,227.75 11.4541337,279.36 42.2741337,319.53 C45.5841337,323.85 48.1441337,323.72 49.7041337,322.45 C55.0341337,318.08 42.9941337,298.63 49.3641337,269.07 C63.3141337,204.38 179.204134,218.84 179.204134,144.57 C179.204134,55.29 8.73413367,101.82 1.15413367,173.42 Z M143.954134,157.75 C125.934134,169.55 104.984134,178.52 76.4941337,180.57 C51.0441337,182.41 50.4341337,165.25 65.9341337,164.08 C89.6041337,162.29 113.904134,153 130.634134,140.82 C146.644134,129.14 157.854134,148.65 143.954134,157.75 Z" id="Shape"></path>
                        <path d="M204.744134,206.93 C165.634134,206.93 159.394134,218.98 159.394134,231.17 C159.394134,243.36 169.584134,258.81 204.744134,258.81 C239.904134,258.81 250.094134,243.36 250.094134,231.17 C250.094134,218.98 243.864134,206.93 204.744134,206.93 Z" id="Path"></path>
                        <path d="M81.7241337,39.54 C83.5741337,38.69 85.7041337,38.65 87.6541337,39.23 C126.184134,50.81 122.414134,-2.84217094e-14 162.234134,-2.84217094e-14 C204.744134,-2.84217094e-14 195.684134,75.97 125.244134,75.97 C78.6841337,75.97 68.3841337,45.62 81.7241337,39.54 Z" id="Path"></path>
                    </g>
                </g>
            </g>
        </g>
    </g>
</svg>