<?xml version="1.0" encoding="UTF-8"?>
<svg width="409px" height="400px" viewBox="0 0 409 400" version="1.1" xmlns="http://www.w3.org/2000/svg" xmlns:xlink="http://www.w3.org/1999/xlink">
    <title>water</title>
    <g id="Page-1" stroke="none" stroke-width="1" fill="none" fill-rule="evenodd">
        <g id="with-borders-copy" transform="translate(-2457.000000, -193.000000)" fill="#000000" fill-rule="nonzero">
            <g id="water" transform="translate(2457.079540, 193.094326)">
                <g id="Group" transform="translate(0.000000, 0.000000)">
                    <path d="M359.86046,312.845674 C366.20046,313.725674 369.26046,321.185674 365.30046,326.215674 C356.16046,337.835674 345.62046,348.645674 333.69046,358.385674 C317.97046,371.225674 243.87046,345.255674 204.42046,280.215674 C177.00046,235.015674 179.04046,104.895674 48.9804601,86.7756743 C42.6404601,85.8956743 39.5804601,78.4456743 43.5404601,73.4056743 C52.6804601,61.7756743 63.2204601,50.9656743 75.1504601,41.2256743 C90.8704601,28.3856743 164.97046,54.3556743 204.42046,119.395674 C231.84046,164.595674 229.80046,294.715674 359.86046,312.845674 Z" id="Path"></path>
                    <path d="M319.04046,120.975674 C311.74046,70.4056743 289.29046,33.2656743 246.89046,6.98567429 C243.28046,4.74567429 245.62046,-0.834325714 249.76046,0.105674286 C336.54046,19.7656743 403.49046,94.8756743 408.82046,188.145674 C410.29046,213.985674 332.10046,211.395674 319.04046,120.975674 Z" id="Path"></path>
                    <path d="M383.36046,234.405674 C261.09046,220.755674 321.91046,64.8956743 203.58046,14.0356743 C179.47046,3.67567429 151.39046,12.4056743 151.39046,29.1356743 C151.39046,36.2256743 156.30046,36.7856743 170.47046,43.7856743 C283.15046,99.3756743 224.24046,239.185674 354.16046,273.765674 C383.44046,281.555674 401.58046,236.445674 383.36046,234.405674 Z" id="Path"></path>
                    <path d="M161.95046,392.625674 C165.56046,394.865674 163.22046,400.445674 159.08046,399.505674 C72.3004601,379.845674 5.34046009,304.735674 0.0204600895,211.475674 C-1.44953991,185.625674 76.7404601,188.215674 89.8004601,278.645674 C97.1004601,329.215674 119.55046,366.345674 161.95046,392.625674 Z" id="Path"></path>
                    <path d="M25.4804601,165.195674 C147.75046,178.845674 86.9304601,334.705674 205.26046,385.565674 C229.37046,395.925674 257.45046,387.195674 257.45046,370.465674 C257.45046,363.375674 252.54046,362.815674 238.37046,355.815674 C125.69046,300.225674 184.60046,160.415674 54.6804601,125.835674 C25.4004601,118.055674 7.26046009,163.165674 25.4804601,165.195674 Z" id="Path"></path>
                </g>
            </g>
        </g>
    </g>
</svg>