<svg class="svg-icon" style="width: 1em;height: 1em;vertical-align: middle;fill: currentColor;overflow: hidden;" viewBox="0 0 1024 1024" version="1.1" xmlns="http://www.w3.org/2000/svg"><path d="M432.946 484.408l171.02-18.4 171.02 18.4c31.484 0 57 25.032 57 55.904v167.714c0 30.876-25.522 55.904-57 55.904l-171.02 20.828-171.02-20.826c-31.478 0-57-25.032-57-55.906v-167.714c0-30.874 25.522-55.904 57-55.904z" fill="#DFEAFF" /><path d="M511.9 831.242c-1.234 0-2.47-0.076-3.698-0.228l-215.74-26.792C236.882 803.146 192 757.6 192 701.766V484.342c0-55.914 45.006-101.51 100.694-102.46l215.932-23.702a30.096 30.096 0 0 1 6.546 0l215.934 23.702c55.688 0.952 100.694 46.548 100.694 102.46v217.424c0 55.832-44.882 101.378-100.464 102.456l-215.738 26.792a30.14 30.14 0 0 1-3.698 0.228z m0-413.062l-214.15 23.506c-1.086 0.12-2.18 0.178-3.274 0.178-23.422 0-42.476 19.054-42.476 42.476v217.424c0 23.422 19.054 42.476 42.474 42.476 1.236 0 2.47 0.076 3.698 0.228l213.728 26.542 213.726-26.542c1.226-0.152 2.46-0.228 3.698-0.228 23.422 0 42.476-19.054 42.476-42.474V484.342c0-23.422-19.054-42.476-42.474-42.476-1.094 0-2.186-0.06-3.274-0.178L511.9 418.18z" fill="#1F48D1" /><path d="M432 252c-11.028 0-20 8.972-20 20v94.536l94.784-8.274 5.216-0.458 5.218 0.458L612 366.534V272c0-11.028-8.97-20-20-20h-160m0-60h160c44.184 0 80 35.818 80 80v160l-160-13.966L352 432v-160c0-44.182 35.818-80 80-80zM512 672c-16.568 0-30-13.432-30-30v-100c0-16.568 13.432-30 30-30s30 13.432 30 30v100c0 16.568-13.432 30-30 30z" fill="#1F48D1" /></svg>