<?xml version="1.0" encoding="UTF-8"?>
<svg width="116px" height="32px" viewBox="0 0 116 32" version="1.1" xmlns="http://www.w3.org/2000/svg" xmlns:xlink="http://www.w3.org/1999/xlink">
    <title>under</title>
    <defs>
        <path d="M2.90969516,0.232082837 L112.940013,0.000958537553 C114.58781,-0.0404015534 115.957144,1.26187359 116.000365,2.90967148 C116.002036,3.0504135 115.995607,3.1912291 115.979261,3.3310634 L113.673799,18.1754517 C113.493062,19.7216854 112.154201,20.8692881 110.598515,20.8114284 L62.6014943,20.8114284 C62.1765666,20.7956243 61.7885722,21.0516381 61.6359562,21.448528 L58.1900391,30.5765856 C57.9928401,31.0894166 57.4172471,31.3452871 56.904416,31.1480881 C56.6308747,31.0429032 56.4176279,30.8224595 56.3215773,30.5455788 L53.176524,21.4794829 C53.0422427,21.0923965 52.6843825,20.8272206 52.2749707,20.8114284 L3.9045424,20.8114284 C2.34668634,20.7513373 1.09753845,19.5023323 1.03726894,17.9444831 L0.0022735342,3.3310634 C-0.0614482848,1.68397869 1.22212095,0.297095965 2.86920567,0.233374149 C2.88269909,0.232852123 2.8961959,0.232421672 2.90969516,0.232082837 Z" id="path-1"></path>
    </defs>
    <g id="Page-1" stroke="none" stroke-width="1" fill="none" fill-rule="evenodd">
        <g id="under" transform="translate(0.000000, 0.000000)">
            <g id="Mask">
                <mask id="mask-2" fill="white">
                    <use xlink:href="#path-1"></use>
                </mask>
                <use fill="#FFD960" fill-rule="nonzero" xlink:href="#path-1"></use>
                <polygon id="Rectangle" fill-opacity="0.18" fill="#FFFFFF" mask="url(#mask-2)" points="-1.71650291 -1 125.419004 -1 -1.71650291 20"></polygon>
            </g>
            <g id="UNDER-CONSTRUCTION" transform="translate(21.929156, 7.607320)" fill="#000000" fill-rule="nonzero">
                <path d="M4,5.5 L4.5,5.5 L4.5,6 L4,6 L3.5,6 L3,6 L2.5,6 L2,6 L2,5.5 L2.5,5.5 L3,5.5 L3.5,5.5 L4,5.5 Z M4.5,5.5 L4.5,5 L5,5 L5,5.5 L4.5,5.5 Z M2,5.5 L1.5,5.5 L1.5,5 L2,5 L2,5.5 Z M5,5 L5,4.5 L5,4 L5,3.5 L5,3 L5,2.5 L5,2 L5,1.5 L5.5,1.5 L5.5,2 L5.5,2.5 L5.5,3 L5.5,3.5 L5.5,4 L5.5,4.5 L5.5,5 L5,5 Z M1.5,5 L1,5 L1,4.5 L0.5,4.5 L0.5,4 L0,4 L0,3.5 L0,3 L0,2.5 L0,2 L0,1.5 L0,1 L0,0.5 L0.5,0.5 L0.5,0 L1,0 L1.5,0 L1.5,0.5 L2,0.5 L2,1 L2.5,1 L2.5,0.5 L3,0.5 L3,0 L3.5,0 L4,0 L4,0.5 L4.5,0.5 L4.5,1 L5,1 L5,1.5 L4.5,1.5 L4,1.5 L4,2 L4,2.5 L4,3 L4,3.5 L4,4 L3.5,4 L3,4 L2.5,4 L2.5,3.5 L2.5,3 L2.5,2.5 L2.5,2 L2.5,1.5 L2,1.5 L1.5,1.5 L1.5,2 L1.5,2.5 L1.5,3 L1.5,3.5 L1.5,4 L1.5,4.5 L1.5,5 Z" id="U"></path>
                <path d="M8.5,3 L8.5,2.5 L8,2.5 L8,2 L7.5,2 L7.5,1.5 L7,1.5 L6.5,1.5 L6.5,2 L6.5,2.5 L6.5,3 L6.5,3.5 L6.5,4 L6.5,4.5 L6.5,5 L6.5,5.5 L7,5.5 L7.5,5.5 L7.5,6 L7,6 L6.5,6 L6.5,5.5 L6,5.5 L6,5 L5.5,5 L5.5,4.5 L5,4.5 L5,4 L5,3.5 L5,3 L5,2.5 L5,2 L5,1.5 L5,1 L5,0.5 L5.5,0.5 L5.5,0 L6,0 L6.5,0 L6.5,0.5 L7,0.5 L7,1 L7.5,1 L7.5,0.5 L8,0.5 L8,0 L8.5,0 L9,0 L9,0.5 L9.5,0.5 L9.5,1 L10,1 L10,1.5 L10.5,1.5 L10.5,2 L10.5,2.5 L10.5,3 L10.5,3.5 L10.5,4 L10.5,4.5 L10.5,5 L10.5,5.5 L10,5.5 L10,6 L9.5,6 L9,6 L9,5.5 L9.5,5.5 L10,5.5 L10,5 L10,4.5 L10,4 L10,3.5 L10,3 L10,2.5 L10,2 L10,1.5 L9.5,1.5 L9,1.5 L9,2 L9,2.5 L9,3 L8.5,3 Z M9,5.5 L8.5,5.5 L8.5,5 L9,5 L9,5.5 Z M7.5,5.5 L7.5,5 L7.5,4.5 L7.5,4 L8,4 L8,4.5 L8.5,4.5 L8.5,5 L8,5 L8,5.5 L7.5,5.5 Z" id="N"></path>
                <path d="M13.5,5.5 L14,5.5 L14,6 L13.5,6 L13,6 L12.5,6 L12,6 L11.5,6 L11.5,5.5 L12,5.5 L12.5,5.5 L13,5.5 L13.5,5.5 Z M14,5.5 L14,5 L14.5,5 L14.5,5.5 L14,5.5 Z M11.5,5.5 L11,5.5 L11,5 L10.5,5 L10.5,4.5 L10,4.5 L10,4 L10,3.5 L10,3 L10,2.5 L10,2 L10,1.5 L10,1 L10,0.5 L10.5,0.5 L10.5,0 L11,0 L11.5,0 L12,0 L12.5,0 L13,0 L13,0.5 L13.5,0.5 L13.5,1 L14,1 L14,1.5 L14.5,1.5 L14.5,2 L15,2 L15,2.5 L15.5,2.5 L15.5,3 L15.5,3.5 L15.5,4 L15.5,4.5 L15,4.5 L15,5 L14.5,5 L14.5,4.5 L15,4.5 L15,4 L15,3.5 L15,3 L15,2.5 L14.5,2.5 L14.5,2 L14,2 L14,1.5 L13.5,1.5 L13,1.5 L12.5,1.5 L12,1.5 L11.5,1.5 L11.5,2 L11.5,2.5 L11.5,3 L11.5,3.5 L11.5,4 L11.5,4.5 L11.5,5 L11.5,5.5 Z M13,4.5 L12.5,4.5 L12.5,4 L12.5,3.5 L12.5,3 L12.5,2.5 L13,2.5 L13.5,2.5 L13.5,3 L14,3 L14,3.5 L14,4 L13.5,4 L13.5,4.5 L13,4.5 Z" id="D"></path>
                <path d="M19,5.5 L19.5,5.5 L19.5,6 L19,6 L18.5,6 L18,6 L17.5,6 L17,6 L16.5,6 L16.5,5.5 L17,5.5 L17.5,5.5 L18,5.5 L18.5,5.5 L19,5.5 Z M19.5,5.5 L19.5,5 L19.5,4.5 L20,4.5 L20,5 L20,5.5 L19.5,5.5 Z M16.5,5.5 L16,5.5 L16,5 L15.5,5 L15.5,4.5 L15,4.5 L15,4 L15,3.5 L15,3 L15,2.5 L15,2 L15,1.5 L15,1 L15,0.5 L15.5,0.5 L15.5,0 L16,0 L16.5,0 L17,0 L17.5,0 L18,0 L18.5,0 L18.5,0.5 L19,0.5 L19,1 L19.5,1 L19.5,1.5 L20,1.5 L20,2 L20,2.5 L19.5,2.5 L19.5,3 L20,3 L20,3.5 L20,4 L19.5,4 L19.5,4.5 L19,4.5 L18.5,4.5 L18,4.5 L17.5,4.5 L17.5,4 L18,4 L18.5,4 L19,4 L19.5,4 L19.5,3.5 L19.5,3 L19,3 L18.5,3 L18,3 L17.5,3 L17.5,2.5 L18,2.5 L18.5,2.5 L19,2.5 L19.5,2.5 L19.5,2 L19.5,1.5 L19,1.5 L18.5,1.5 L18,1.5 L17.5,1.5 L17,1.5 L16.5,1.5 L16.5,2 L16.5,2.5 L16.5,3 L16.5,3.5 L16.5,4 L16.5,4.5 L16.5,5 L16.5,5.5 Z" id="E"></path>
                <path d="M24,5.5 L24.5,5.5 L24.5,6 L24,6 L23.5,6 L23.5,5.5 L24,5.5 Z M21.5,5.5 L22,5.5 L22,6 L21.5,6 L21,6 L21,5.5 L21.5,5.5 Z M24.5,5.5 L24.5,5 L24.5,4.5 L25,4.5 L25,5 L25,5.5 L24.5,5.5 Z M23.5,5.5 L23,5.5 L23,5 L23.5,5 L23.5,5.5 Z M22,5.5 L22,5 L22,4.5 L22,4 L22.5,4 L22.5,4.5 L23,4.5 L23,5 L22.5,5 L22.5,5.5 L22,5.5 Z M21,5.5 L20.5,5.5 L20.5,5 L20,5 L20,4.5 L19.5,4.5 L19.5,4 L19.5,3.5 L19.5,3 L19.5,2.5 L19.5,2 L19.5,1.5 L19.5,1 L19.5,0.5 L20,0.5 L20,0 L20.5,0 L21,0 L21.5,0 L22,0 L22.5,0 L23,0 L23,0.5 L23.5,0.5 L23.5,1 L24,1 L24,1.5 L24.5,1.5 L24.5,2 L25,2 L25,2.5 L25,3 L24.5,3 L24.5,3.5 L24,3.5 L24,4 L24.5,4 L24.5,4.5 L24,4.5 L24,4 L23.5,4 L23.5,3.5 L24,3.5 L24,3 L24.5,3 L24.5,2.5 L24.5,2 L24,2 L24,1.5 L23.5,1.5 L23,1.5 L22.5,1.5 L22,1.5 L21.5,1.5 L21,1.5 L21,2 L21,2.5 L21,3 L21,3.5 L21,4 L21,4.5 L21,5 L21,5.5 Z M22.5,2.5 L23,2.5 L23,3 L22.5,3 L22,3 L22,2.5 L22.5,2.5 Z" id="R"></path>
                <path d="M31,5.5 L31.5,5.5 L31.5,6 L31,6 L30.5,6 L30,6 L29.5,6 L29.5,5.5 L30,5.5 L30.5,5.5 L31,5.5 Z M31.5,5.5 L31.5,5 L32,5 L32,5.5 L31.5,5.5 Z M29.5,5.5 L29,5.5 L29,5 L29.5,5 L29.5,5.5 Z M32,5 L32,4.5 L32,4 L32.5,4 L32.5,4.5 L32.5,5 L32,5 Z M29,5 L28.5,5 L28.5,4.5 L29,4.5 L29,5 Z M30.5,4.5 L30,4.5 L30,4 L29.5,4 L29.5,3.5 L29.5,3 L30,3 L30,2.5 L30.5,2.5 L31,2.5 L31,3 L31.5,3 L32,3 L32,3.5 L32,4 L31.5,4 L31,4 L31,4.5 L30.5,4.5 Z M28.5,4.5 L28,4.5 L28,4 L27.5,4 L27.5,3.5 L27,3.5 L27,3 L27,2.5 L27,2 L27,1.5 L27.5,1.5 L27.5,1 L28,1 L28,0.5 L28.5,0.5 L28.5,0 L29,0 L29.5,0 L30,0 L30.5,0 L30.5,0.5 L31,0.5 L31,1 L31.5,1 L31.5,1.5 L32,1.5 L32,2 L32.5,2 L32.5,2.5 L32.5,3 L32,3 L32,2.5 L32,2 L31.5,2 L31.5,1.5 L31,1.5 L30.5,1.5 L30,1.5 L29.5,1.5 L29.5,2 L29,2 L29,2.5 L28.5,2.5 L28.5,3 L28.5,3.5 L28.5,4 L28.5,4.5 Z" id="C"></path>
                <path d="M36,5.5 L36.5,5.5 L36.5,6 L36,6 L35.5,6 L35,6 L34.5,6 L34.5,5.5 L35,5.5 L35.5,5.5 L36,5.5 Z M36.5,5.5 L36.5,5 L37,5 L37,5.5 L36.5,5.5 Z M34.5,5.5 L34,5.5 L34,5 L34.5,5 L34.5,5.5 Z M37,5 L37,4.5 L37.5,4.5 L37.5,5 L37,5 Z M34,5 L33.5,5 L33.5,4.5 L34,4.5 L34,5 Z M37.5,4.5 L37.5,4 L37.5,3.5 L37.5,3 L37.5,2.5 L38,2.5 L38,3 L38,3.5 L38,4 L38,4.5 L37.5,4.5 Z M35.5,4.5 L35,4.5 L35,4 L34.5,4 L34.5,3.5 L34.5,3 L35,3 L35,2.5 L35.5,2.5 L36,2.5 L36,3 L36.5,3 L36.5,3.5 L36.5,4 L36,4 L36,4.5 L35.5,4.5 Z M33.5,4.5 L33,4.5 L33,4 L32.5,4 L32.5,3.5 L32,3.5 L32,3 L32,2.5 L32,2 L32,1.5 L32.5,1.5 L32.5,1 L33,1 L33,0.5 L33.5,0.5 L33.5,0 L34,0 L34.5,0 L35,0 L35.5,0 L35.5,0.5 L36,0.5 L36,1 L36.5,1 L36.5,1.5 L37,1.5 L37,2 L37.5,2 L37.5,2.5 L37,2.5 L37,2 L36.5,2 L36.5,1.5 L36,1.5 L35.5,1.5 L35,1.5 L34.5,1.5 L34.5,2 L34,2 L34,2.5 L33.5,2.5 L33.5,3 L33.5,3.5 L33.5,4 L33.5,4.5 Z" id="O"></path>
                <path d="M41,3 L41,2.5 L40.5,2.5 L40.5,2 L40,2 L40,1.5 L39.5,1.5 L39,1.5 L39,2 L39,2.5 L39,3 L39,3.5 L39,4 L39,4.5 L39,5 L39,5.5 L39.5,5.5 L40,5.5 L40,6 L39.5,6 L39,6 L39,5.5 L38.5,5.5 L38.5,5 L38,5 L38,4.5 L37.5,4.5 L37.5,4 L37.5,3.5 L37.5,3 L37.5,2.5 L37.5,2 L37.5,1.5 L37.5,1 L37.5,0.5 L38,0.5 L38,0 L38.5,0 L39,0 L39,0.5 L39.5,0.5 L39.5,1 L40,1 L40,0.5 L40.5,0.5 L40.5,0 L41,0 L41.5,0 L41.5,0.5 L42,0.5 L42,1 L42.5,1 L42.5,1.5 L43,1.5 L43,2 L43,2.5 L43,3 L43,3.5 L43,4 L43,4.5 L43,5 L43,5.5 L42.5,5.5 L42.5,6 L42,6 L41.5,6 L41.5,5.5 L42,5.5 L42.5,5.5 L42.5,5 L42.5,4.5 L42.5,4 L42.5,3.5 L42.5,3 L42.5,2.5 L42.5,2 L42.5,1.5 L42,1.5 L41.5,1.5 L41.5,2 L41.5,2.5 L41.5,3 L41,3 Z M41.5,5.5 L41,5.5 L41,5 L41.5,5 L41.5,5.5 Z M40,5.5 L40,5 L40,4.5 L40,4 L40.5,4 L40.5,4.5 L41,4.5 L41,5 L40.5,5 L40.5,5.5 L40,5.5 Z" id="N"></path>
                <path d="M46,5.5 L46.5,5.5 L46.5,6 L46,6 L45.5,6 L45,6 L44.5,6 L44,6 L44,5.5 L44.5,5.5 L45,5.5 L45.5,5.5 L46,5.5 Z M46.5,5.5 L46.5,5 L47,5 L47,5.5 L46.5,5.5 Z M44,5.5 L43.5,5.5 L43.5,5 L43,5 L43,4.5 L42.5,4.5 L42.5,4 L42.5,3.5 L43,3.5 L43,3 L43.5,3 L43.5,2.5 L43,2.5 L43,2 L42.5,2 L42.5,1.5 L42.5,1 L43,1 L43,0.5 L43.5,0.5 L43.5,0 L44,0 L44.5,0 L45,0 L45.5,0 L46,0 L46,0.5 L46.5,0.5 L46.5,1 L47,1 L47,1.5 L47.5,1.5 L47.5,2 L47.5,2.5 L47,2.5 L47,3 L46.5,3 L46.5,3.5 L47,3.5 L47,4 L47.5,4 L47.5,4.5 L47.5,5 L47,5 L47,4.5 L47,4 L46.5,4 L46.5,3.5 L46,3.5 L46,3 L45.5,3 L45.5,2.5 L46,2.5 L46.5,2.5 L47,2.5 L47,2 L47,1.5 L46.5,1.5 L46,1.5 L45.5,1.5 L45,1.5 L44.5,1.5 L44.5,2 L44,2 L44,2.5 L44,3 L44.5,3 L44.5,3.5 L45,3.5 L45,4 L45.5,4 L45.5,4.5 L45,4.5 L44.5,4.5 L44,4.5 L44,5 L44,5.5 Z" id="S"></path>
                <path d="M50,5.5 L50.5,5.5 L50.5,6 L50,6 L49.5,6 L49.5,5.5 L50,5.5 Z M50.5,5.5 L50.5,5 L50.5,4.5 L50.5,4 L50.5,3.5 L50.5,3 L50.5,2.5 L51,2.5 L51.5,2.5 L51.5,3 L51,3 L51,3.5 L51,4 L51,4.5 L51,5 L51,5.5 L50.5,5.5 Z M49.5,5.5 L49,5.5 L49,5 L48.5,5 L48.5,4.5 L48,4.5 L48,4 L48,3.5 L48,3 L48,2.5 L48,2 L47.5,2 L47.5,1.5 L47,1.5 L47,1 L47,0.5 L47.5,0.5 L47.5,0 L48,0 L48.5,0 L49,0 L49.5,0 L50,0 L50.5,0 L50.5,0.5 L51,0.5 L51,1 L51.5,1 L51.5,1.5 L52,1.5 L52,2 L52,2.5 L51.5,2.5 L51.5,2 L51.5,1.5 L51,1.5 L50.5,1.5 L50,1.5 L49.5,1.5 L49,1.5 L48.5,1.5 L48.5,2 L48.5,2.5 L49,2.5 L49.5,2.5 L49.5,3 L49.5,3.5 L49.5,4 L49.5,4.5 L49.5,5 L49.5,5.5 Z" id="T"></path>
                <path d="M56,5.5 L56.5,5.5 L56.5,6 L56,6 L55.5,6 L55.5,5.5 L56,5.5 Z M53.5,5.5 L54,5.5 L54,6 L53.5,6 L53,6 L53,5.5 L53.5,5.5 Z M56.5,5.5 L56.5,5 L56.5,4.5 L57,4.5 L57,5 L57,5.5 L56.5,5.5 Z M55.5,5.5 L55,5.5 L55,5 L55.5,5 L55.5,5.5 Z M54,5.5 L54,5 L54,4.5 L54,4 L54.5,4 L54.5,4.5 L55,4.5 L55,5 L54.5,5 L54.5,5.5 L54,5.5 Z M53,5.5 L52.5,5.5 L52.5,5 L52,5 L52,4.5 L51.5,4.5 L51.5,4 L51.5,3.5 L51.5,3 L51.5,2.5 L51.5,2 L51.5,1.5 L51.5,1 L51.5,0.5 L52,0.5 L52,0 L52.5,0 L53,0 L53.5,0 L54,0 L54.5,0 L55,0 L55,0.5 L55.5,0.5 L55.5,1 L56,1 L56,1.5 L56.5,1.5 L56.5,2 L57,2 L57,2.5 L57,3 L56.5,3 L56.5,3.5 L56,3.5 L56,4 L56.5,4 L56.5,4.5 L56,4.5 L56,4 L55.5,4 L55.5,3.5 L56,3.5 L56,3 L56.5,3 L56.5,2.5 L56.5,2 L56,2 L56,1.5 L55.5,1.5 L55,1.5 L54.5,1.5 L54,1.5 L53.5,1.5 L53,1.5 L53,2 L53,2.5 L53,3 L53,3.5 L53,4 L53,4.5 L53,5 L53,5.5 Z M54.5,2.5 L55,2.5 L55,3 L54.5,3 L54,3 L54,2.5 L54.5,2.5 Z" id="R"></path>
                <path d="M60.5,5.5 L61,5.5 L61,6 L60.5,6 L60,6 L59.5,6 L59,6 L58.5,6 L58.5,5.5 L59,5.5 L59.5,5.5 L60,5.5 L60.5,5.5 Z M61,5.5 L61,5 L61.5,5 L61.5,5.5 L61,5.5 Z M58.5,5.5 L58,5.5 L58,5 L58.5,5 L58.5,5.5 Z M61.5,5 L61.5,4.5 L61.5,4 L61.5,3.5 L61.5,3 L61.5,2.5 L61.5,2 L61.5,1.5 L62,1.5 L62,2 L62,2.5 L62,3 L62,3.5 L62,4 L62,4.5 L62,5 L61.5,5 Z M58,5 L57.5,5 L57.5,4.5 L57,4.5 L57,4 L56.5,4 L56.5,3.5 L56.5,3 L56.5,2.5 L56.5,2 L56.5,1.5 L56.5,1 L56.5,0.5 L57,0.5 L57,0 L57.5,0 L58,0 L58,0.5 L58.5,0.5 L58.5,1 L59,1 L59,0.5 L59.5,0.5 L59.5,0 L60,0 L60.5,0 L60.5,0.5 L61,0.5 L61,1 L61.5,1 L61.5,1.5 L61,1.5 L60.5,1.5 L60.5,2 L60.5,2.5 L60.5,3 L60.5,3.5 L60.5,4 L60,4 L59.5,4 L59,4 L59,3.5 L59,3 L59,2.5 L59,2 L59,1.5 L58.5,1.5 L58,1.5 L58,2 L58,2.5 L58,3 L58,3.5 L58,4 L58,4.5 L58,5 Z" id="U"></path>
                <path d="M65.5,5.5 L66,5.5 L66,6 L65.5,6 L65,6 L64.5,6 L64,6 L64,5.5 L64.5,5.5 L65,5.5 L65.5,5.5 Z M66,5.5 L66,5 L66.5,5 L66.5,5.5 L66,5.5 Z M64,5.5 L63.5,5.5 L63.5,5 L64,5 L64,5.5 Z M66.5,5 L66.5,4.5 L66.5,4 L67,4 L67,4.5 L67,5 L66.5,5 Z M63.5,5 L63,5 L63,4.5 L63.5,4.5 L63.5,5 Z M65,4.5 L64.5,4.5 L64.5,4 L64,4 L64,3.5 L64,3 L64.5,3 L64.5,2.5 L65,2.5 L65.5,2.5 L65.5,3 L66,3 L66.5,3 L66.5,3.5 L66.5,4 L66,4 L65.5,4 L65.5,4.5 L65,4.5 Z M63,4.5 L62.5,4.5 L62.5,4 L62,4 L62,3.5 L61.5,3.5 L61.5,3 L61.5,2.5 L61.5,2 L61.5,1.5 L62,1.5 L62,1 L62.5,1 L62.5,0.5 L63,0.5 L63,0 L63.5,0 L64,0 L64.5,0 L65,0 L65,0.5 L65.5,0.5 L65.5,1 L66,1 L66,1.5 L66.5,1.5 L66.5,2 L67,2 L67,2.5 L67,3 L66.5,3 L66.5,2.5 L66.5,2 L66,2 L66,1.5 L65.5,1.5 L65,1.5 L64.5,1.5 L64,1.5 L64,2 L63.5,2 L63.5,2.5 L63,2.5 L63,3 L63,3.5 L63,4 L63,4.5 Z" id="C"></path>
                <path d="M69.5,5.5 L70,5.5 L70,6 L69.5,6 L69,6 L69,5.5 L69.5,5.5 Z M70,5.5 L70,5 L70,4.5 L70,4 L70,3.5 L70,3 L70,2.5 L70.5,2.5 L71,2.5 L71,3 L70.5,3 L70.5,3.5 L70.5,4 L70.5,4.5 L70.5,5 L70.5,5.5 L70,5.5 Z M69,5.5 L68.5,5.5 L68.5,5 L68,5 L68,4.5 L67.5,4.5 L67.5,4 L67.5,3.5 L67.5,3 L67.5,2.5 L67.5,2 L67,2 L67,1.5 L66.5,1.5 L66.5,1 L66.5,0.5 L67,0.5 L67,0 L67.5,0 L68,0 L68.5,0 L69,0 L69.5,0 L70,0 L70,0.5 L70.5,0.5 L70.5,1 L71,1 L71,1.5 L71.5,1.5 L71.5,2 L71.5,2.5 L71,2.5 L71,2 L71,1.5 L70.5,1.5 L70,1.5 L69.5,1.5 L69,1.5 L68.5,1.5 L68,1.5 L68,2 L68,2.5 L68.5,2.5 L69,2.5 L69,3 L69,3.5 L69,4 L69,4.5 L69,5 L69,5.5 Z" id="T"></path>
                <path d="M73,5.5 L73.5,5.5 L73.5,6 L73,6 L72.5,6 L72.5,5.5 L73,5.5 Z M73.5,5.5 L73.5,5 L73.5,4.5 L73.5,4 L73.5,3.5 L73.5,3 L73.5,2.5 L73.5,2 L73.5,1.5 L74,1.5 L74,2 L74,2.5 L74,3 L74,3.5 L74,4 L74,4.5 L74,5 L74,5.5 L73.5,5.5 Z M72.5,5.5 L72,5.5 L72,5 L71.5,5 L71.5,4.5 L71,4.5 L71,4 L71,3.5 L71,3 L71,2.5 L71,2 L71,1.5 L71,1 L71,0.5 L71.5,0.5 L71.5,0 L72,0 L72.5,0 L72.5,0.5 L73,0.5 L73,1 L73.5,1 L73.5,1.5 L73,1.5 L72.5,1.5 L72.5,2 L72.5,2.5 L72.5,3 L72.5,3.5 L72.5,4 L72.5,4.5 L72.5,5 L72.5,5.5 Z" id="I"></path>
                <path d="M77.5,5.5 L78,5.5 L78,6 L77.5,6 L77,6 L76.5,6 L76,6 L76,5.5 L76.5,5.5 L77,5.5 L77.5,5.5 Z M78,5.5 L78,5 L78.5,5 L78.5,5.5 L78,5.5 Z M76,5.5 L75.5,5.5 L75.5,5 L76,5 L76,5.5 Z M78.5,5 L78.5,4.5 L79,4.5 L79,5 L78.5,5 Z M75.5,5 L75,5 L75,4.5 L75.5,4.5 L75.5,5 Z M79,4.5 L79,4 L79,3.5 L79,3 L79,2.5 L79.5,2.5 L79.5,3 L79.5,3.5 L79.5,4 L79.5,4.5 L79,4.5 Z M77,4.5 L76.5,4.5 L76.5,4 L76,4 L76,3.5 L76,3 L76.5,3 L76.5,2.5 L77,2.5 L77.5,2.5 L77.5,3 L78,3 L78,3.5 L78,4 L77.5,4 L77.5,4.5 L77,4.5 Z M75,4.5 L74.5,4.5 L74.5,4 L74,4 L74,3.5 L73.5,3.5 L73.5,3 L73.5,2.5 L73.5,2 L73.5,1.5 L74,1.5 L74,1 L74.5,1 L74.5,0.5 L75,0.5 L75,0 L75.5,0 L76,0 L76.5,0 L77,0 L77,0.5 L77.5,0.5 L77.5,1 L78,1 L78,1.5 L78.5,1.5 L78.5,2 L79,2 L79,2.5 L78.5,2.5 L78.5,2 L78,2 L78,1.5 L77.5,1.5 L77,1.5 L76.5,1.5 L76,1.5 L76,2 L75.5,2 L75.5,2.5 L75,2.5 L75,3 L75,3.5 L75,4 L75,4.5 Z" id="O"></path>
                <path d="M82.5,3 L82.5,2.5 L82,2.5 L82,2 L81.5,2 L81.5,1.5 L81,1.5 L80.5,1.5 L80.5,2 L80.5,2.5 L80.5,3 L80.5,3.5 L80.5,4 L80.5,4.5 L80.5,5 L80.5,5.5 L81,5.5 L81.5,5.5 L81.5,6 L81,6 L80.5,6 L80.5,5.5 L80,5.5 L80,5 L79.5,5 L79.5,4.5 L79,4.5 L79,4 L79,3.5 L79,3 L79,2.5 L79,2 L79,1.5 L79,1 L79,0.5 L79.5,0.5 L79.5,0 L80,0 L80.5,0 L80.5,0.5 L81,0.5 L81,1 L81.5,1 L81.5,0.5 L82,0.5 L82,0 L82.5,0 L83,0 L83,0.5 L83.5,0.5 L83.5,1 L84,1 L84,1.5 L84.5,1.5 L84.5,2 L84.5,2.5 L84.5,3 L84.5,3.5 L84.5,4 L84.5,4.5 L84.5,5 L84.5,5.5 L84,5.5 L84,6 L83.5,6 L83,6 L83,5.5 L83.5,5.5 L84,5.5 L84,5 L84,4.5 L84,4 L84,3.5 L84,3 L84,2.5 L84,2 L84,1.5 L83.5,1.5 L83,1.5 L83,2 L83,2.5 L83,3 L82.5,3 Z M83,5.5 L82.5,5.5 L82.5,5 L83,5 L83,5.5 Z M81.5,5.5 L81.5,5 L81.5,4.5 L81.5,4 L82,4 L82,4.5 L82.5,4.5 L82.5,5 L82,5 L82,5.5 L81.5,5.5 Z" id="N"></path>
            </g>
            <g id="iconmonstr-construction-1" transform="translate(9.570844, 5.607320)" fill="#000000">
                <path d="M0.747,2.418 C0.873375,2.1675 1.08375,1.749375 1.207125,1.5 C1.255875,1.402125 1.348875,1.344375 1.458,1.334625 C1.970625,1.28775 3.049125,1.2075 3.493875,1.17825 C3.699,1.16475 3.8505,1.195125 3.98175,1.327125 L5.0265,2.377125 C5.120625,2.471625 5.1735,2.5995 5.173125,2.732625 L5.17125,6.12075 L6.276,7.045125 L7.295625,5.921625 C7.51725,5.677875 7.918875,5.7585 8.023875,6.07125 C8.375625,7.127625 9,9 9,9 L4.5,9 L6.023625,7.323 L3.7515,5.421375 L3.095625,4.872375 L3.830625,6.20625 C3.869625,6.27675 3.892125,6.35475 3.897375,6.43425 L4.045875,8.701125 C4.054125,8.833875 3.96225,9 3.75075,9 C3.61275,9 3.493125,8.905125 3.462,8.770875 C3.346125,8.27475 3.077625,7.12125 3.00975,6.829125 C2.99925,6.784125 2.977125,6.74325 2.946,6.7095 C2.740125,6.487875 1.91925,5.625 1.91925,5.625 C1.91925,5.625 0.86775,8.12475 0.583875,8.821875 C0.5415,8.92575 0.443625,9 0.303375,9 C0.130125,9 1.2490009e-16,8.85675 1.2490009e-16,8.698875 C1.2490009e-16,8.644125 0.654375,5.4855 0.87075,4.334625 C0.897,4.1955 0.960375,4.06575 1.0545,3.959625 L1.4595,3.50325 L0.145875,2.40375 C-0.04425,2.244375 0.19725,1.95675 0.386625,2.116125 L0.747,2.418 Z M3.31725,4.568625 L3.99225,5.13375 L4.72425,5.7465 L4.326375,3.516 L3.31725,4.568625 Z M1.081875,2.698125 L1.7085,3.222375 L2.755125,2.042625 L1.731375,1.974 L1.081875,2.698125 L1.081875,2.698125 Z M5.45175,-3.33066907e-16 C5.958,-3.33066907e-16 6.369,0.411 6.369,0.91725 C6.369,1.4235 5.958,1.834125 5.45175,1.834125 C4.945875,1.834125 4.5345,1.4235 4.5345,0.91725 C4.5345,0.411 4.945875,-3.33066907e-16 5.45175,-3.33066907e-16 L5.45175,-3.33066907e-16 Z" id="Shape"></path>
            </g>
        </g>
    </g>
</svg>