<?xml version="1.0" encoding="UTF-8"?>
<svg width="250px" height="32px" viewBox="0 0 250 32" version="1.1" xmlns="http://www.w3.org/2000/svg" xmlns:xlink="http://www.w3.org/1999/xlink">
    <title>yuki</title>
    <defs>
        <path d="M2.9113796,0.232048334 L246.059662,0.000958395049 C247.707215,-0.040395547 249.076345,1.26168599 249.119194,2.90923891 C249.119194,3.04996 249.114802,3.19075466 249.098459,3.33056818 L246.79334,18.1727496 C246.612628,19.7187534 245.273967,20.8661855 243.718513,20.8083344 L129.077454,20.8083344 C128.65259,20.7925326 128.264653,21.0485083 128.11206,21.4453393 L124.666655,30.5720398 C124.469485,31.0847946 123.893978,31.340627 123.381223,31.1434574 C123.107723,31.0382881 122.894507,30.8178772 122.798471,30.5410376 L119.653885,21.4762895 C119.519623,21.0892607 119.161817,20.8241243 118.752465,20.8083344 L3.90607894,20.8083344 C2.34845449,20.7482522 1.0994923,19.4994329 1.03923175,17.9418153 L3.99680289e-15,3.33056818 C-0.0593221281,1.68372834 1.22405628,0.297051796 2.87089613,0.233339454 C2.88438755,0.232817505 2.89788235,0.232387119 2.9113796,0.232048334 Z" id="path-1"></path>
    </defs>
    <g id="Page-1" stroke="none" stroke-width="1" fill="none" fill-rule="evenodd">
        <g id="yuki" transform="translate(0.273566, 0.175682)">
            <g id="Mask" fill="#000000" fill-rule="nonzero" opacity="0.550897507">
                <path d="M2.9113796,0.232048334 L246.059662,0.000958395049 C247.707215,-0.040395547 249.076345,1.26168599 249.119194,2.90923891 C249.119194,3.04996 249.114802,3.19075466 249.098459,3.33056818 L246.79334,18.1727496 C246.612628,19.7187534 245.273967,20.8661855 243.718513,20.8083344 L129.077454,20.8083344 C128.65259,20.7925326 128.264653,21.0485083 128.11206,21.4453393 L124.666655,30.5720398 C124.469485,31.0847946 123.893978,31.340627 123.381223,31.1434574 C123.107723,31.0382881 122.894507,30.8178772 122.798471,30.5410376 L119.653885,21.4762895 C119.519623,21.0892607 119.161817,20.8241243 118.752465,20.8083344 L3.90607894,20.8083344 C2.34845449,20.7482522 1.0994923,19.4994329 1.03923175,17.9418153 L4.00753947e-15,3.33056818 C-0.0593221281,1.68372834 1.22405628,0.297051796 2.87089613,0.233339454 C2.88438755,0.232817505 2.89788235,0.232387119 2.9113796,0.232048334 Z" id="path-1"></path>
            </g>
            <g id="Yuki-was-last-seen-h-Copy-Clipped">
                <mask id="mask-2" fill="white">
                    <use xlink:href="#path-1"></use>
                </mask>
                <g id="path-1"></g>
                <g id="Yuki-was-last-seen-h-Copy" mask="url(#mask-2)">
                    <g transform="translate(9.278917, 7.496211)" id="Group">
                        <g transform="translate(0.000000, 0.000000)">
                            <polygon id="Y" fill="#FFFFFF" fill-rule="nonzero" points="2.63893735 3.13330292 4.56069647 0.18103528 3.80174087 0.18103528 2.31864416 2.45790207 0.835547445 0.18103528 0 0.18103528 1.9635365 3.14026581 1.9635365 5.124691 2.63893735 5.124691"></polygon>
                            <path d="M6.75400851,5.19431995 C7.70096228,5.19431995 8.21621654,4.53980778 8.21621654,3.7599635 L8.21621654,1.68502068 L7.58955596,1.68502068 L7.58955596,3.72514903 C7.58955596,4.24736618 7.29015146,4.59551095 6.75400851,4.59551095 C6.19697688,4.59551095 5.91846107,4.24736618 5.91846107,3.72514903 L5.91846107,1.68502068 L5.27787469,1.68502068 L5.27787469,3.7599635 C5.27787469,4.61639963 5.77920316,5.19431995 6.75400851,5.19431995 Z" id="u" fill="#FFFFFF" fill-rule="nonzero"></path>
                            <polygon id="k" fill="#FFFFFF" fill-rule="nonzero" points="11.8090706 5.124691 12.6655067 5.124691 10.7646362 3.3073753 12.574989 1.68502068 11.7046271 1.68502068 10.0822725 3.1611545 10.0822725 0 9.46953771 0 9.46953771 5.124691 10.0822725 5.124691 10.0822725 3.50929927"></polygon>
                            <path d="M13.3339446,1.02354562 L13.9989446,1.02354562 L13.9989446,0.0278515815 L13.3339446,0.0278515815 L13.3339446,1.02354562 Z M13.3479446,5.124691 L13.9849446,5.124691 L13.9849446,1.68502068 L13.3479446,1.68502068 L13.3479446,5.124691 Z" id="i" fill="#FFFFFF" fill-rule="nonzero"></path>
                            <polygon id="w" fill="#FFFFFF" fill-rule="nonzero" points="20.1854337 5.15254258 20.7424653 5.15254258 21.9122317 1.68502068 21.2855712 1.68502068 20.4709124 4.19166302 19.6214392 1.6571691 19.036556 1.6571691 18.1801198 4.22647749 17.3515353 1.68502068 16.6691715 1.68502068 17.8528637 5.15254258 18.4168583 5.15254258 19.301146 2.54145681"></polygon>
                            <path d="M25.0176831,5.124691 L25.6513066,5.124691 L25.6513066,1.68502068 L25.0176831,1.68502068 L25.0176831,2.2559781 C24.9202025,2.08190572 24.6695383,1.60842883 23.9941375,1.60842883 C23.1725158,1.60842883 22.5388923,2.27686679 22.5388923,3.41181873 C22.5388923,4.54677068 23.1725158,5.20824574 23.9941375,5.20824574 C24.6625754,5.20824574 24.9271654,4.76262044 25.0176831,4.56069647 L25.0176831,5.124691 Z M25.0316089,3.41181873 C25.0316089,4.10114538 24.6973899,4.63032542 24.1125067,4.63032542 C23.5136977,4.63032542 23.1934045,4.10114538 23.1934045,3.41181873 C23.1934045,2.72249209 23.5136977,2.19331204 24.1125067,2.19331204 C24.6973899,2.19331204 25.0316089,2.72249209 25.0316089,3.41181873 Z" id="a" fill="#FFFFFF" fill-rule="nonzero"></path>
                            <path d="M28.3946873,3.69729744 C28.8472755,3.74603771 29.0074221,3.89922141 29.0074221,4.19862591 C29.0074221,4.47017883 28.7776466,4.65817701 28.283281,4.65817701 C27.5800286,4.65817701 27.3572159,4.28914355 27.3015128,4.19862591 L26.6539635,4.19862591 C26.7096667,4.5119562 27.1204775,5.22217153 28.283281,5.22217153 C29.1675687,5.22217153 29.6410456,4.76958333 29.6410456,4.17077433 C29.6410456,3.55107664 29.2789751,3.19596898 28.4643163,3.09152555 L27.9838765,3.03582238 C27.5730657,2.98708212 27.3711417,2.84086131 27.3711417,2.58323418 C27.3711417,2.33256995 27.6009173,2.13760888 28.0743942,2.13760888 C28.6592774,2.13760888 28.9029787,2.44397628 28.9586819,2.51360523 L29.5853424,2.51360523 C29.4948248,2.23508942 29.2023832,1.58754015 28.0743942,1.58754015 C27.2945499,1.58754015 26.751444,1.99835097 26.751444,2.61108577 C26.751444,3.24470924 27.2249209,3.56500243 27.9003218,3.64159428 L28.3946873,3.69729744 Z" id="s" fill="#FFFFFF" fill-rule="nonzero"></path>
                            <polygon id="l" fill="#FFFFFF" fill-rule="nonzero" points="32.544573 5.124691 33.1781965 5.124691 33.1781965 0 32.544573 0"></polygon>
                            <path d="M36.7431989,5.124691 L37.3768224,5.124691 L37.3768224,1.68502068 L36.7431989,1.68502068 L36.7431989,2.2559781 C36.6457184,2.08190572 36.3950541,1.60842883 35.7196533,1.60842883 C34.8980316,1.60842883 34.2644081,2.27686679 34.2644081,3.41181873 C34.2644081,4.54677068 34.8980316,5.20824574 35.7196533,5.20824574 C36.3880912,5.20824574 36.6526813,4.76262044 36.7431989,4.56069647 L36.7431989,5.124691 Z M36.7571247,3.41181873 C36.7571247,4.10114538 36.4229057,4.63032542 35.8380225,4.63032542 C35.2392135,4.63032542 34.9189203,4.10114538 34.9189203,3.41181873 C34.9189203,2.72249209 35.2392135,2.19331204 35.8380225,2.19331204 C36.4229057,2.19331204 36.7571247,2.72249209 36.7571247,3.41181873 Z" id="a" fill="#FFFFFF" fill-rule="nonzero"></path>
                            <path d="M40.1202032,3.69729744 C40.5727913,3.74603771 40.7329379,3.89922141 40.7329379,4.19862591 C40.7329379,4.47017883 40.5031624,4.65817701 40.0087968,4.65817701 C39.3055444,4.65817701 39.0827317,4.28914355 39.0270286,4.19862591 L38.3794793,4.19862591 C38.4351825,4.5119562 38.8459933,5.22217153 40.0087968,5.22217153 C40.8930845,5.22217153 41.3665614,4.76958333 41.3665614,4.17077433 C41.3665614,3.55107664 41.0044909,3.19596898 40.1898321,3.09152555 L39.7093923,3.03582238 C39.2985815,2.98708212 39.0966575,2.84086131 39.0966575,2.58323418 C39.0966575,2.33256995 39.3264331,2.13760888 39.79991,2.13760888 C40.3847932,2.13760888 40.6284945,2.44397628 40.6841977,2.51360523 L41.3108583,2.51360523 C41.2203406,2.23508942 40.927899,1.58754015 39.79991,1.58754015 C39.0200657,1.58754015 38.4769598,1.99835097 38.4769598,2.61108577 C38.4769598,3.24470924 38.9504367,3.56500243 39.6258376,3.64159428 L40.1202032,3.69729744 Z" id="s" fill="#FFFFFF" fill-rule="nonzero"></path>
                            <path d="M44.7644544,4.53980778 L44.186534,4.53980778 C43.6643169,4.53980778 43.5180961,4.34484671 43.5180961,3.87136983 L43.5180961,2.2559781 L44.7644544,2.2559781 L44.7644544,1.68502068 L43.5180961,1.68502068 L43.5180961,0.18103528 L42.8844726,0.18103528 L42.8844726,1.68502068 L41.9862591,1.68502068 L41.9862591,2.2559781 L42.8844726,2.2559781 L42.8844726,4.00366484 C42.8844726,4.74869465 43.2674319,5.124691 44.0263875,5.124691 L44.7644544,5.124691 L44.7644544,4.53980778 Z" id="t" fill="#FFFFFF" fill-rule="nonzero"></path>
                            <path d="M49.0605608,3.69729744 C49.513149,3.74603771 49.6732956,3.89922141 49.6732956,4.19862591 C49.6732956,4.47017883 49.4435201,4.65817701 48.9491545,4.65817701 C48.2459021,4.65817701 48.0230894,4.28914355 47.9673862,4.19862591 L47.319837,4.19862591 C47.3755401,4.5119562 47.786351,5.22217153 48.9491545,5.22217153 C49.8334422,5.22217153 50.3069191,4.76958333 50.3069191,4.17077433 C50.3069191,3.55107664 49.9448485,3.19596898 49.1301898,3.09152555 L48.64975,3.03582238 C48.2389392,2.98708212 48.0370152,2.84086131 48.0370152,2.58323418 C48.0370152,2.33256995 48.2667907,2.13760888 48.7402676,2.13760888 C49.3251508,2.13760888 49.5688522,2.44397628 49.6245553,2.51360523 L50.2512159,2.51360523 C50.1606983,2.23508942 49.8682567,1.58754015 48.7402676,1.58754015 C47.9604233,1.58754015 47.4173175,1.99835097 47.4173175,2.61108577 C47.4173175,3.24470924 47.8907944,3.56500243 48.5661952,3.64159428 L49.0605608,3.69729744 Z" id="s" fill="#FFFFFF" fill-rule="nonzero"></path>
                            <path d="M52.6951922,1.59450304 C51.7412755,1.59450304 51.1285407,2.35345864 51.1285407,3.40485584 C51.1285407,4.41447567 51.7552013,5.20824574 52.7578583,5.20824574 C53.837107,5.20824574 54.1574002,4.48410462 54.2339921,4.20558881 L53.6282202,4.20558881 C53.572517,4.29610645 53.370593,4.63032542 52.7578583,4.63032542 C52.1451235,4.63032542 51.8039416,4.13595985 51.7691271,3.49537348 L54.2548808,3.49537348 L54.2548808,3.39789294 C54.2548808,2.30471837 53.6282202,1.59450304 52.6951922,1.59450304 Z M52.6951922,2.13760888 C53.1895578,2.13760888 53.4819994,2.44397628 53.5864428,2.99404501 L51.7900158,2.99404501 C51.8805334,2.46486496 52.172975,2.13760888 52.6951922,2.13760888 Z" id="e" fill="#FFFFFF" fill-rule="nonzero"></path>
                            <path d="M56.636191,1.59450304 C55.6822743,1.59450304 55.0695395,2.35345864 55.0695395,3.40485584 C55.0695395,4.41447567 55.6962001,5.20824574 56.698857,5.20824574 C57.7781058,5.20824574 58.098399,4.48410462 58.1749909,4.20558881 L57.569219,4.20558881 C57.5135158,4.29610645 57.3115918,4.63032542 56.698857,4.63032542 C56.0861222,4.63032542 55.7449404,4.13595985 55.7101259,3.49537348 L58.1958795,3.49537348 L58.1958795,3.39789294 C58.1958795,2.30471837 57.569219,1.59450304 56.636191,1.59450304 Z M56.636191,2.13760888 C57.1305566,2.13760888 57.4229982,2.44397628 57.5274416,2.99404501 L55.7310146,2.99404501 C55.8215322,2.46486496 56.1139738,2.13760888 56.636191,2.13760888 Z" id="e" fill="#FFFFFF" fill-rule="nonzero"></path>
                            <path d="M59.8669744,3.19596898 C59.8669744,2.54841971 60.1942305,2.19331204 60.7442993,2.19331204 C61.2665164,2.19331204 61.5798467,2.52753102 61.5798467,3.19596898 L61.5798467,5.124691 L62.2204331,5.124691 L62.2204331,3.07759976 C62.2204331,2.15153467 61.6982159,1.60842883 60.8974829,1.60842883 C60.3195626,1.60842883 59.9992694,1.97746229 59.8669744,2.262941 L59.8669744,1.68502068 L59.233351,1.68502068 L59.233351,5.124691 L59.8669744,5.124691 L59.8669744,3.19596898 Z" id="n" fill="#FFFFFF" fill-rule="nonzero"></path>
                            <path d="M65.952545,3.23078345 C65.952545,2.5623455 66.2798011,2.19331204 66.8298698,2.19331204 C67.352087,2.19331204 67.6654173,2.54145681 67.6654173,3.23078345 L67.6654173,5.124691 L68.3060036,5.124691 L68.3060036,3.11241423 C68.3060036,2.16546046 67.7837865,1.60842883 66.9830535,1.60842883 C66.4051332,1.60842883 66.08484,1.99138808 65.952545,2.29079258 L65.952545,0 L65.3189215,0 L65.3189215,5.124691 L65.952545,5.124691 L65.952545,3.23078345 Z" id="h" fill="#FFFFFF" fill-rule="nonzero"></path>
                            <path d="M70.9031636,1.59450304 C69.9492469,1.59450304 69.3365121,2.35345864 69.3365121,3.40485584 C69.3365121,4.41447567 69.9631727,5.20824574 70.9658297,5.20824574 C72.0450784,5.20824574 72.3653716,4.48410462 72.4419635,4.20558881 L71.8361916,4.20558881 C71.7804884,4.29610645 71.5785645,4.63032542 70.9658297,4.63032542 C70.3530949,4.63032542 70.011913,4.13595985 69.9770985,3.49537348 L72.4628522,3.49537348 L72.4628522,3.39789294 C72.4628522,2.30471837 71.8361916,1.59450304 70.9031636,1.59450304 Z M70.9031636,2.13760888 C71.3975292,2.13760888 71.6899708,2.44397628 71.7944142,2.99404501 L69.9979872,2.99404501 C70.0885048,2.46486496 70.3809464,2.13760888 70.9031636,2.13760888 Z" id="e" fill="#FFFFFF" fill-rule="nonzero"></path>
                            <path d="M75.7702275,5.124691 L76.4038509,5.124691 L76.4038509,1.68502068 L75.7702275,1.68502068 L75.7702275,2.2559781 C75.6727469,2.08190572 75.4220827,1.60842883 74.7466818,1.60842883 C73.9250602,1.60842883 73.2914367,2.27686679 73.2914367,3.41181873 C73.2914367,4.54677068 73.9250602,5.20824574 74.7466818,5.20824574 C75.4151198,5.20824574 75.6797098,4.76262044 75.7702275,4.56069647 L75.7702275,5.124691 Z M75.7841533,3.41181873 C75.7841533,4.10114538 75.4499343,4.63032542 74.8650511,4.63032542 C74.2662421,4.63032542 73.9459489,4.10114538 73.9459489,3.41181873 C73.9459489,2.72249209 74.2662421,2.19331204 74.8650511,2.19331204 C75.4499343,2.19331204 75.7841533,2.72249209 75.7841533,3.41181873 Z" id="a" fill="#FFFFFF" fill-rule="nonzero"></path>
                            <path d="M80.0384823,5.124691 L80.6721058,5.124691 L80.6721058,0 L80.0384823,0 L80.0384823,2.24901521 C79.9410018,2.07494282 79.6555231,1.59450304 78.9731593,1.59450304 C78.1445748,1.59450304 77.4761368,2.262941 77.4761368,3.40485584 C77.4761368,4.53980778 78.1445748,5.20824574 78.9731593,5.20824574 C79.662486,5.20824574 79.9479647,4.74173175 80.0384823,4.53980778 L80.0384823,5.124691 Z M80.0524081,3.40485584 C80.0524081,4.09418248 79.6833747,4.63032542 79.0845657,4.63032542 C78.4927196,4.63032542 78.130649,4.09418248 78.130649,3.40485584 C78.130649,2.7085663 78.4927196,2.17938625 79.0845657,2.17938625 C79.6833747,2.17938625 80.0524081,2.7085663 80.0524081,3.40485584 Z" id="d" fill="#FFFFFF" fill-rule="nonzero"></path>
                            <path d="M83.2971174,1.59450304 C82.3432007,1.59450304 81.7304659,2.35345864 81.7304659,3.40485584 C81.7304659,4.41447567 82.3571265,5.20824574 83.3597834,5.20824574 C84.4390322,5.20824574 84.7593254,4.48410462 84.8359172,4.20558881 L84.2301454,4.20558881 C84.1744422,4.29610645 83.9725182,4.63032542 83.3597834,4.63032542 C82.7470486,4.63032542 82.4058668,4.13595985 82.3710523,3.49537348 L84.8568059,3.49537348 L84.8568059,3.39789294 C84.8568059,2.30471837 84.2301454,1.59450304 83.2971174,1.59450304 Z M83.2971174,2.13760888 C83.7914829,2.13760888 84.0839245,2.44397628 84.188368,2.99404501 L82.391941,2.99404501 C82.4824586,2.46486496 82.7749002,2.13760888 83.2971174,2.13760888 Z" id="e" fill="#FFFFFF" fill-rule="nonzero"></path>
                            <path d="M88.247736,5.124691 L88.8813595,5.124691 L88.8813595,0 L88.247736,0 L88.247736,2.24901521 C88.1502554,2.07494282 87.8647767,1.59450304 87.182413,1.59450304 C86.3538284,1.59450304 85.6853905,2.262941 85.6853905,3.40485584 C85.6853905,4.53980778 86.3538284,5.20824574 87.182413,5.20824574 C87.8717396,5.20824574 88.1572183,4.74173175 88.247736,4.53980778 L88.247736,5.124691 Z M88.2616618,3.40485584 C88.2616618,4.09418248 87.8926283,4.63032542 87.2938193,4.63032542 C86.7019732,4.63032542 86.3399026,4.09418248 86.3399026,3.40485584 C86.3399026,2.7085663 86.7019732,2.17938625 87.2938193,2.17938625 C87.8926283,2.17938625 88.2616618,2.7085663 88.2616618,3.40485584 Z" id="d" fill="#FFFFFF" fill-rule="nonzero"></path>
                            <path d="M94.3611581,4.53980778 L93.7832378,4.53980778 C93.2610207,4.53980778 93.1147998,4.34484671 93.1147998,3.87136983 L93.1147998,2.2559781 L94.3611581,2.2559781 L94.3611581,1.68502068 L93.1147998,1.68502068 L93.1147998,0.18103528 L92.4811764,0.18103528 L92.4811764,1.68502068 L91.5829629,1.68502068 L91.5829629,2.2559781 L92.4811764,2.2559781 L92.4811764,4.00366484 C92.4811764,4.74869465 92.8641356,5.124691 93.6230912,5.124691 L94.3611581,5.124691 L94.3611581,4.53980778 Z" id="t" fill="#FFFFFF" fill-rule="nonzero"></path>
                            <path d="M95.9835127,3.23078345 C95.9835127,2.5623455 96.3107688,2.19331204 96.8608376,2.19331204 C97.3830547,2.19331204 97.696385,2.54145681 97.696385,3.23078345 L97.696385,5.124691 L98.3369714,5.124691 L98.3369714,3.11241423 C98.3369714,2.16546046 97.8147542,1.60842883 97.0140213,1.60842883 C96.4361009,1.60842883 96.1158078,1.99138808 95.9835127,2.29079258 L95.9835127,0 L95.3498893,0 L95.3498893,5.124691 L95.9835127,5.124691 L95.9835127,3.23078345 Z" id="h" fill="#FFFFFF" fill-rule="nonzero"></path>
                            <path d="M99.5833297,1.02354562 L100.24833,1.02354562 L100.24833,0.0278515815 L99.5833297,0.0278515815 L99.5833297,1.02354562 Z M99.5973297,5.124691 L100.23433,5.124691 L100.23433,1.68502068 L99.5973297,1.68502068 L99.5973297,5.124691 Z" id="i" fill="#FFFFFF" fill-rule="nonzero"></path>
                            <path d="M102.981223,3.69729744 C103.433811,3.74603771 103.593957,3.89922141 103.593957,4.19862591 C103.593957,4.47017883 103.364182,4.65817701 102.869816,4.65817701 C102.166564,4.65817701 101.943751,4.28914355 101.888048,4.19862591 L101.240499,4.19862591 C101.296202,4.5119562 101.707013,5.22217153 102.869816,5.22217153 C103.754104,5.22217153 104.227581,4.76958333 104.227581,4.17077433 C104.227581,3.55107664 103.86551,3.19596898 103.050852,3.09152555 L102.570412,3.03582238 C102.159601,2.98708212 101.957677,2.84086131 101.957677,2.58323418 C101.957677,2.33256995 102.187453,2.13760888 102.660929,2.13760888 C103.245813,2.13760888 103.489514,2.44397628 103.545217,2.51360523 L104.171878,2.51360523 C104.08136,2.23508942 103.788918,1.58754015 102.660929,1.58754015 C101.881085,1.58754015 101.337979,1.99835097 101.337979,2.61108577 C101.337979,3.24470924 101.811456,3.56500243 102.486857,3.64159428 L102.981223,3.69729744 Z" id="s" fill="#FFFFFF" fill-rule="nonzero"></path>
                            <path d="M109.470641,5.124691 L110.104265,5.124691 L110.104265,0 L109.470641,0 L109.470641,2.24901521 C109.373161,2.07494282 109.087682,1.59450304 108.405318,1.59450304 C107.576734,1.59450304 106.908296,2.262941 106.908296,3.40485584 C106.908296,4.53980778 107.576734,5.20824574 108.405318,5.20824574 C109.094645,5.20824574 109.380123,4.74173175 109.470641,4.53980778 L109.470641,5.124691 Z M109.484567,3.40485584 C109.484567,4.09418248 109.115533,4.63032542 108.516724,4.63032542 C107.924878,4.63032542 107.562808,4.09418248 107.562808,3.40485584 C107.562808,2.7085663 107.924878,2.17938625 108.516724,2.17938625 C109.115533,2.17938625 109.484567,2.7085663 109.484567,3.40485584 Z" id="d" fill="#FFFFFF" fill-rule="nonzero"></path>
                            <path d="M111.378474,1.02354562 L112.043474,1.02354562 L112.043474,0.0278515815 L111.378474,0.0278515815 L111.378474,1.02354562 Z M111.392474,5.124691 L112.029474,5.124691 L112.029474,1.68502068 L111.392474,1.68502068 L111.392474,5.124691 Z" id="i" fill="#FFFFFF" fill-rule="nonzero"></path>
                            <path d="M113.947783,3.18204319 C113.947783,2.57627129 114.261113,2.29079258 115.061846,2.29079258 L115.779024,2.29079258 L115.779024,1.6571691 L115.117549,1.6571691 C114.344668,1.6571691 114.0383,2.04709124 113.947783,2.30471837 L113.947783,1.68502068 L113.314159,1.68502068 L113.314159,5.124691 L113.947783,5.124691 L113.947783,3.18204319 Z" id="r" fill="#FFFFFF" fill-rule="nonzero"></path>
                            <path d="M117.993225,1.59450304 C117.039308,1.59450304 116.426574,2.35345864 116.426574,3.40485584 C116.426574,4.41447567 117.053234,5.20824574 118.055891,5.20824574 C119.13514,5.20824574 119.455433,4.48410462 119.532025,4.20558881 L118.926253,4.20558881 C118.87055,4.29610645 118.668626,4.63032542 118.055891,4.63032542 C117.443156,4.63032542 117.101974,4.13595985 117.06716,3.49537348 L119.552914,3.49537348 L119.552914,3.39789294 C119.552914,2.30471837 118.926253,1.59450304 117.993225,1.59450304 Z M117.993225,2.13760888 C118.487591,2.13760888 118.780032,2.44397628 118.884476,2.99404501 L117.088049,2.99404501 C117.178566,2.46486496 117.471008,2.13760888 117.993225,2.13760888 Z" id="e" fill="#FFFFFF" fill-rule="nonzero"></path>
                            <path d="M122.762808,2.7085663 L123.382506,2.7085663 C123.326803,2.45790207 123.034361,1.59450304 121.934224,1.59450304 C121.03601,1.59450304 120.367572,2.36042153 120.367572,3.40485584 C120.367572,4.44232725 121.042973,5.20824574 121.941187,5.20824574 C123.034361,5.20824574 123.347692,4.32395803 123.382506,4.10114538 L122.769771,4.10114538 C122.714068,4.22647749 122.519107,4.63032542 121.941187,4.63032542 C121.384155,4.63032542 121.022085,4.09418248 121.022085,3.40485584 C121.022085,2.7085663 121.384155,2.17938625 121.934224,2.17938625 C122.484293,2.17938625 122.707105,2.56930839 122.762808,2.7085663 Z" id="c" fill="#FFFFFF" fill-rule="nonzero"></path>
                            <path d="M126.717733,4.53980778 L126.139813,4.53980778 C125.617595,4.53980778 125.471375,4.34484671 125.471375,3.87136983 L125.471375,2.2559781 L126.717733,2.2559781 L126.717733,1.68502068 L125.471375,1.68502068 L125.471375,0.18103528 L124.837751,0.18103528 L124.837751,1.68502068 L123.939538,1.68502068 L123.939538,2.2559781 L124.837751,2.2559781 L124.837751,4.00366484 C124.837751,4.74869465 125.22071,5.124691 125.979666,5.124691 L126.717733,5.124691 L126.717733,4.53980778 Z" id="t" fill="#FFFFFF" fill-rule="nonzero"></path>
                            <path d="M127.699501,1.02354562 L128.364501,1.02354562 L128.364501,0.0278515815 L127.699501,0.0278515815 L127.699501,1.02354562 Z M127.713501,5.124691 L128.350501,5.124691 L128.350501,1.68502068 L127.713501,1.68502068 L127.713501,5.124691 Z" id="i" fill="#FFFFFF" fill-rule="nonzero"></path>
                            <path d="M131.027765,1.60146594 C130.05296,1.60146594 129.412373,2.38131022 129.412373,3.40485584 C129.412373,4.42840146 130.05296,5.20824574 131.027765,5.20824574 C132.002571,5.20824574 132.643157,4.42840146 132.643157,3.40485584 C132.643157,2.38131022 132.002571,1.60146594 131.027765,1.60146594 Z M131.027765,4.62336253 C130.394142,4.62336253 130.066886,4.08025669 130.066886,3.40485584 C130.066886,2.72945499 130.401105,2.18634915 131.027765,2.18634915 C131.654426,2.18634915 131.988645,2.72945499 131.988645,3.40485584 C131.988645,4.08025669 131.654426,4.62336253 131.027765,4.62336253 Z" id="o" fill="#FFFFFF" fill-rule="nonzero"></path>
                            <path d="M134.33514,3.19596898 C134.33514,2.54841971 134.662397,2.19331204 135.212465,2.19331204 C135.734682,2.19331204 136.048013,2.52753102 136.048013,3.19596898 L136.048013,5.124691 L136.688599,5.124691 L136.688599,3.07759976 C136.688599,2.15153467 136.166382,1.60842883 135.365649,1.60842883 C134.787729,1.60842883 134.467435,1.97746229 134.33514,2.262941 L134.33514,1.68502068 L133.701517,1.68502068 L133.701517,5.124691 L134.33514,5.124691 L134.33514,3.19596898 Z" id="n" fill="#FFFFFF" fill-rule="nonzero"></path>
                            <polygon id="." fill="#FFFFFF" fill-rule="nonzero" points="137.914069 5.124691 138.721765 5.124691 138.721765 4.13595985 137.914069 4.13595985"></polygon>
                            <polygon id="." fill="#FFFFFF" fill-rule="nonzero" points="139.947234 5.124691 140.75493 5.124691 140.75493 4.13595985 139.947234 4.13595985"></polygon>
                            <polygon id="." fill="#FFFFFF" fill-rule="nonzero" points="141.9804 5.124691 142.788095 5.124691 142.788095 4.13595985 141.9804 4.13595985"></polygon>
                            <polygon id="w" fill="#FFFFFF" fill-rule="nonzero" points="148.957221 5.15254258 149.514252 5.15254258 150.684019 1.68502068 150.057358 1.68502068 149.242699 4.19166302 148.393226 1.6571691 147.808343 1.6571691 146.951907 4.22647749 146.123322 1.68502068 145.440959 1.68502068 146.624651 5.15254258 147.188645 5.15254258 148.072933 2.54145681"></polygon>
                            <path d="M152.912145,1.60146594 C151.93734,1.60146594 151.296754,2.38131022 151.296754,3.40485584 C151.296754,4.42840146 151.93734,5.20824574 152.912145,5.20824574 C153.886951,5.20824574 154.527537,4.42840146 154.527537,3.40485584 C154.527537,2.38131022 153.886951,1.60146594 152.912145,1.60146594 Z M152.912145,4.62336253 C152.278522,4.62336253 151.951266,4.08025669 151.951266,3.40485584 C151.951266,2.72945499 152.285485,2.18634915 152.912145,2.18634915 C153.538806,2.18634915 153.873025,2.72945499 153.873025,3.40485584 C153.873025,4.08025669 153.538806,4.62336253 152.912145,4.62336253 Z" id="o" fill="#FFFFFF" fill-rule="nonzero"></path>
                            <path d="M156.219521,3.19596898 C156.219521,2.54841971 156.546777,2.19331204 157.096845,2.19331204 C157.619063,2.19331204 157.932393,2.52753102 157.932393,3.19596898 L157.932393,5.124691 L158.572979,5.124691 L158.572979,3.07759976 C158.572979,2.15153467 158.050762,1.60842883 157.250029,1.60842883 C156.672109,1.60842883 156.351816,1.97746229 156.219521,2.262941 L156.219521,1.68502068 L155.585897,1.68502068 L155.585897,5.124691 L156.219521,5.124691 L156.219521,3.19596898 Z" id="n" fill="#FFFFFF" fill-rule="nonzero"></path>
                            <path d="M162.179759,5.124691 L162.813383,5.124691 L162.813383,0 L162.179759,0 L162.179759,2.24901521 C162.082279,2.07494282 161.7968,1.59450304 161.114436,1.59450304 C160.285852,1.59450304 159.617414,2.262941 159.617414,3.40485584 C159.617414,4.53980778 160.285852,5.20824574 161.114436,5.20824574 C161.803763,5.20824574 162.089241,4.74173175 162.179759,4.53980778 L162.179759,5.124691 Z M162.193685,3.40485584 C162.193685,4.09418248 161.824651,4.63032542 161.225842,4.63032542 C160.633996,4.63032542 160.271926,4.09418248 160.271926,3.40485584 C160.271926,2.7085663 160.633996,2.17938625 161.225842,2.17938625 C161.824651,2.17938625 162.193685,2.7085663 162.193685,3.40485584 Z" id="d" fill="#FFFFFF" fill-rule="nonzero"></path>
                            <path d="M165.438394,1.59450304 C164.484477,1.59450304 163.871743,2.35345864 163.871743,3.40485584 C163.871743,4.41447567 164.498403,5.20824574 165.50106,5.20824574 C166.580309,5.20824574 166.900602,4.48410462 166.977194,4.20558881 L166.371422,4.20558881 C166.315719,4.29610645 166.113795,4.63032542 165.50106,4.63032542 C164.888325,4.63032542 164.547144,4.13595985 164.512329,3.49537348 L166.998083,3.49537348 L166.998083,3.39789294 C166.998083,2.30471837 166.371422,1.59450304 165.438394,1.59450304 Z M165.438394,2.13760888 C165.93276,2.13760888 166.225201,2.44397628 166.329645,2.99404501 L164.533218,2.99404501 C164.623735,2.46486496 164.916177,2.13760888 165.438394,2.13760888 Z" id="e" fill="#FFFFFF" fill-rule="nonzero"></path>
                            <path d="M168.669178,3.18204319 C168.669178,2.57627129 168.982508,2.29079258 169.783241,2.29079258 L170.500419,2.29079258 L170.500419,1.6571691 L169.838944,1.6571691 C169.066063,1.6571691 168.759695,2.04709124 168.669178,2.30471837 L168.669178,1.68502068 L168.035554,1.68502068 L168.035554,5.124691 L168.669178,5.124691 L168.669178,3.18204319 Z" id="r" fill="#FFFFFF" fill-rule="nonzero"></path>
                            <polygon id="w" fill="#FFFFFF" fill-rule="nonzero" points="176.286585 5.15254258 176.843617 5.15254258 178.013383 1.68502068 177.386723 1.68502068 176.572064 4.19166302 175.722591 1.6571691 175.137707 1.6571691 174.281271 4.22647749 173.452687 1.68502068 172.770323 1.68502068 173.954015 5.15254258 174.51801 5.15254258 175.402297 2.54145681"></polygon>
                            <path d="M179.482554,3.23078345 C179.482554,2.5623455 179.80981,2.19331204 180.359879,2.19331204 C180.882096,2.19331204 181.195426,2.54145681 181.195426,3.23078345 L181.195426,5.124691 L181.836013,5.124691 L181.836013,3.11241423 C181.836013,2.16546046 181.313796,1.60842883 180.513063,1.60842883 C179.935142,1.60842883 179.614849,1.99138808 179.482554,2.29079258 L179.482554,0 L178.848931,0 L178.848931,5.124691 L179.482554,5.124691 L179.482554,3.23078345 Z" id="h" fill="#FFFFFF" fill-rule="nonzero"></path>
                            <path d="M184.433173,1.59450304 C183.479256,1.59450304 182.866521,2.35345864 182.866521,3.40485584 C182.866521,4.41447567 183.493182,5.20824574 184.495839,5.20824574 C185.575088,5.20824574 185.895381,4.48410462 185.971973,4.20558881 L185.366201,4.20558881 C185.310498,4.29610645 185.108574,4.63032542 184.495839,4.63032542 C183.883104,4.63032542 183.541922,4.13595985 183.507108,3.49537348 L185.992861,3.49537348 L185.992861,3.39789294 C185.992861,2.30471837 185.366201,1.59450304 184.433173,1.59450304 Z M184.433173,2.13760888 C184.927538,2.13760888 185.21998,2.44397628 185.324423,2.99404501 L183.527996,2.99404501 C183.618514,2.46486496 183.910956,2.13760888 184.433173,2.13760888 Z" id="e" fill="#FFFFFF" fill-rule="nonzero"></path>
                            <path d="M187.663956,3.18204319 C187.663956,2.57627129 187.977286,2.29079258 188.778019,2.29079258 L189.495198,2.29079258 L189.495198,1.6571691 L188.833723,1.6571691 C188.060841,1.6571691 187.754474,2.04709124 187.663956,2.30471837 L187.663956,1.68502068 L187.030333,1.68502068 L187.030333,5.124691 L187.663956,5.124691 L187.663956,3.18204319 Z" id="r" fill="#FFFFFF" fill-rule="nonzero"></path>
                            <path d="M191.709398,1.59450304 C190.755482,1.59450304 190.142747,2.35345864 190.142747,3.40485584 C190.142747,4.41447567 190.769407,5.20824574 191.772064,5.20824574 C192.851313,5.20824574 193.171606,4.48410462 193.248198,4.20558881 L192.642426,4.20558881 C192.586723,4.29610645 192.384799,4.63032542 191.772064,4.63032542 C191.15933,4.63032542 190.818148,4.13595985 190.783333,3.49537348 L193.269087,3.49537348 L193.269087,3.39789294 C193.269087,2.30471837 192.642426,1.59450304 191.709398,1.59450304 Z M191.709398,2.13760888 C192.203764,2.13760888 192.496206,2.44397628 192.600649,2.99404501 L190.804222,2.99404501 C190.89474,2.46486496 191.187181,2.13760888 191.709398,2.13760888 Z" id="e" fill="#FFFFFF" fill-rule="nonzero"></path>
                            <path d="M197.613934,3.69729744 C198.066522,3.74603771 198.226668,3.89922141 198.226668,4.19862591 C198.226668,4.47017883 197.996893,4.65817701 197.502527,4.65817701 C196.799275,4.65817701 196.576462,4.28914355 196.520759,4.19862591 L195.87321,4.19862591 C195.928913,4.5119562 196.339724,5.22217153 197.502527,5.22217153 C198.386815,5.22217153 198.860292,4.76958333 198.860292,4.17077433 C198.860292,3.55107664 198.498221,3.19596898 197.683563,3.09152555 L197.203123,3.03582238 C196.792312,2.98708212 196.590388,2.84086131 196.590388,2.58323418 C196.590388,2.33256995 196.820164,2.13760888 197.29364,2.13760888 C197.878524,2.13760888 198.122225,2.44397628 198.177928,2.51360523 L198.804589,2.51360523 C198.714071,2.23508942 198.421629,1.58754015 197.29364,1.58754015 C196.513796,1.58754015 195.97069,1.99835097 195.97069,2.61108577 C195.97069,3.24470924 196.444167,3.56500243 197.119568,3.64159428 L197.613934,3.69729744 Z" id="s" fill="#FFFFFF" fill-rule="nonzero"></path>
                            <path d="M200.53835,3.23078345 C200.53835,2.5623455 200.865606,2.19331204 201.415675,2.19331204 C201.937892,2.19331204 202.251222,2.54145681 202.251222,3.23078345 L202.251222,5.124691 L202.891808,5.124691 L202.891808,3.11241423 C202.891808,2.16546046 202.369591,1.60842883 201.568858,1.60842883 C200.990938,1.60842883 200.670645,1.99138808 200.53835,2.29079258 L200.53835,0 L199.904726,0 L199.904726,5.124691 L200.53835,5.124691 L200.53835,3.23078345 Z" id="h" fill="#FFFFFF" fill-rule="nonzero"></path>
                            <path d="M205.488968,1.59450304 C204.535052,1.59450304 203.922317,2.35345864 203.922317,3.40485584 C203.922317,4.41447567 204.548977,5.20824574 205.551634,5.20824574 C206.630883,5.20824574 206.951176,4.48410462 207.027768,4.20558881 L206.421996,4.20558881 C206.366293,4.29610645 206.164369,4.63032542 205.551634,4.63032542 C204.9389,4.63032542 204.597718,4.13595985 204.562903,3.49537348 L207.048657,3.49537348 L207.048657,3.39789294 C207.048657,2.30471837 206.421996,1.59450304 205.488968,1.59450304 Z M205.488968,2.13760888 C205.983334,2.13760888 206.275775,2.44397628 206.380219,2.99404501 L204.583792,2.99404501 C204.67431,2.46486496 204.966751,2.13760888 205.488968,2.13760888 Z" id="e" fill="#FFFFFF" fill-rule="nonzero"></path>
                            <polygon id="w" fill="#FFFFFF" fill-rule="nonzero" points="213.001932 5.15254258 213.558964 5.15254258 214.72873 1.68502068 214.10207 1.68502068 213.287411 4.19166302 212.437938 1.6571691 211.853055 1.6571691 210.996619 4.22647749 210.168034 1.68502068 209.48567 1.68502068 210.669362 5.15254258 211.233357 5.15254258 212.117645 2.54145681"></polygon>
                            <path d="M216.908117,1.59450304 C215.9542,1.59450304 215.341465,2.35345864 215.341465,3.40485584 C215.341465,4.41447567 215.968126,5.20824574 216.970783,5.20824574 C218.050032,5.20824574 218.370325,4.48410462 218.446917,4.20558881 L217.841145,4.20558881 C217.785442,4.29610645 217.583518,4.63032542 216.970783,4.63032542 C216.358048,4.63032542 216.016866,4.13595985 215.982052,3.49537348 L218.467805,3.49537348 L218.467805,3.39789294 C218.467805,2.30471837 217.841145,1.59450304 216.908117,1.59450304 Z M216.908117,2.13760888 C217.402482,2.13760888 217.694924,2.44397628 217.799367,2.99404501 L216.00294,2.99404501 C216.093458,2.46486496 216.3859,2.13760888 216.908117,2.13760888 Z" id="e" fill="#FFFFFF" fill-rule="nonzero"></path>
                            <path d="M220.1389,3.19596898 C220.1389,2.54841971 220.466156,2.19331204 221.016225,2.19331204 C221.538442,2.19331204 221.851772,2.52753102 221.851772,3.19596898 L221.851772,5.124691 L222.492359,5.124691 L222.492359,3.07759976 C222.492359,2.15153467 221.970142,1.60842883 221.169409,1.60842883 C220.591488,1.60842883 220.271195,1.97746229 220.1389,2.262941 L220.1389,1.68502068 L219.505277,1.68502068 L219.505277,5.124691 L220.1389,5.124691 L220.1389,3.19596898 Z" id="n" fill="#FFFFFF" fill-rule="nonzero"></path>
                            <path d="M226.099139,4.53980778 L225.521218,4.53980778 C224.999001,4.53980778 224.85278,4.34484671 224.85278,3.87136983 L224.85278,2.2559781 L226.099139,2.2559781 L226.099139,1.68502068 L224.85278,1.68502068 L224.85278,0.18103528 L224.219157,0.18103528 L224.219157,1.68502068 L223.320943,1.68502068 L223.320943,2.2559781 L224.219157,2.2559781 L224.219157,4.00366484 C224.219157,4.74869465 224.602116,5.124691 225.361072,5.124691 L226.099139,5.124691 L226.099139,4.53980778 Z" id="t" fill="#FFFFFF" fill-rule="nonzero"></path>
                            <path d="M228.236747,3.50929927 C228.236747,3.29344951 228.285488,3.18204319 228.473486,3.04974817 L228.974814,2.7085663 C229.510957,2.34649574 229.824288,1.99835097 229.824288,1.38561618 C229.824288,0.598809002 229.295108,0.0974805352 228.396894,0.0974805352 C227.526532,0.0974805352 226.990389,0.626660584 226.990389,1.46917092 L226.990389,1.71287226 L227.610087,1.71287226 L227.610087,1.49005961 C227.610087,1.01658272 227.895566,0.668437956 228.396894,0.668437956 C228.89126,0.668437956 229.176738,0.946953771 229.176738,1.38561618 C229.176738,1.76857543 228.933037,2.00531387 228.62667,2.22116362 L228.125341,2.56930839 C227.679716,2.88263869 227.596161,3.03582238 227.596161,3.45359611 L227.596161,3.50929927 L228.236747,3.50929927 Z M227.512606,5.124691 L228.320302,5.124691 L228.320302,4.13595985 L227.512606,4.13595985 L227.512606,5.124691 Z" id="?" fill="#FFFFFF" fill-rule="nonzero"></path>
                        </g>
                    </g>
                </g>
            </g>
        </g>
    </g>
</svg>